<?xml version="1.0" encoding="UTF-8" standalone="no"?>
<!DOCTYPE svg PUBLIC "-//W3C//DTD SVG 1.1//EN"
 "http://www.w3.org/Graphics/SVG/1.1/DTD/svg11.dtd">
<!-- Generated by graphviz version 15.0.0 (0)
 -->
<!-- Title: cyberforge_arch Pages: 1 -->
<svg width="1559pt" height="1133pt"
 viewBox="0.00 0.00 1559.00 1133.00" xmlns="http://www.w3.org/2000/svg" xmlns:xlink="http://www.w3.org/1999/xlink">
<g id="graph0" class="graph" transform="scale(1 1) rotate(0) translate(36 1096.56)">
<title>cyberforge_arch</title>
<polygon fill="white" stroke="none" points="-36,36 -36,-1096.56 1523,-1096.56 1523,36 -36,36"/>
<g id="clust1" class="cluster">
<title>cluster_l1</title>
<path fill="#f2f5f9" stroke="#0a6b7b" stroke-width="2" d="M20,-940.4C20,-940.4 914,-940.4 914,-940.4 920,-940.4 926,-946.4 926,-952.4 926,-952.4 926,-1040.56 926,-1040.56 926,-1046.56 920,-1052.56 914,-1052.56 914,-1052.56 20,-1052.56 20,-1052.56 14,-1052.56 8,-1046.56 8,-1040.56 8,-1040.56 8,-952.4 8,-952.4 8,-946.4 14,-940.4 20,-940.4"/>
<text xml:space="preserve" text-anchor="start" x="356.16" y="-1036.96" font-family="Helvetica,sans-Serif" font-weight="bold" font-size="14.00" fill="#0a6b7b">LAYER 1 · Users &amp; Client Channels</text>
</g>
<g id="clust3" class="cluster">
<title>cluster_l2</title>
<path fill="#f2f5f9" stroke="#0a6b7b" stroke-width="2" d="M371,-273C371,-273 1467,-273 1467,-273 1473,-273 1479,-279 1479,-285 1479,-285 1479,-887.4 1479,-887.4 1479,-893.4 1473,-899.4 1467,-899.4 1467,-899.4 371,-899.4 371,-899.4 365,-899.4 359,-893.4 359,-887.4 359,-887.4 359,-285 359,-285 359,-279 365,-273 371,-273"/>
<text xml:space="preserve" text-anchor="start" x="742.82" y="-883.8" font-family="Helvetica,sans-Serif" font-weight="bold" font-size="14.00" fill="#0a6b7b">LAYER 2 · Back&#45;end — Node.js / Express on Heroku PaaS</text>
</g>
<g id="clust4" class="cluster">
<title>cluster_core</title>
<path fill="#fffbec" stroke="#f4c20d" stroke-width="2" d="M383,-285C383,-285 1013,-285 1013,-285 1019,-285 1025,-291 1025,-297 1025,-297 1025,-630 1025,-630 1025,-636 1019,-642 1013,-642 1013,-642 383,-642 383,-642 377,-642 371,-636 371,-630 371,-630 371,-297 371,-297 371,-291 377,-285 383,-285"/>
<text xml:space="preserve" text-anchor="start" x="591.33" y="-628.2" font-family="Helvetica,sans-Serif" font-weight="bold" font-size="12.00" fill="#8a6d00">AGENTIC AI CORE · 8 specialist agents</text>
</g>
<g id="clust8" class="cluster">
<title>cluster_mem</title>
<path fill="#eaf4f6" stroke="#0a6b7b" stroke-width="1.6" d="M1049,-407.8C1049,-407.8 1455,-407.8 1455,-407.8 1461,-407.8 1467,-413.8 1467,-419.8 1467,-419.8 1467,-499.8 1467,-499.8 1467,-505.8 1461,-511.8 1455,-511.8 1455,-511.8 1049,-511.8 1049,-511.8 1043,-511.8 1037,-505.8 1037,-499.8 1037,-499.8 1037,-419.8 1037,-419.8 1037,-413.8 1043,-407.8 1049,-407.8"/>
<text xml:space="preserve" text-anchor="start" x="1200.84" y="-498" font-family="Helvetica,sans-Serif" font-weight="bold" font-size="12.00" fill="#0a6b7b">MEMORY LAYER</text>
</g>
<g id="clust10" class="cluster">
<title>cluster_l3</title>
<path fill="#f2f5f9" stroke="#0a6b7b" stroke-width="2" d="M164,-148.4C164,-148.4 834,-148.4 834,-148.4 840,-148.4 846,-154.4 846,-160.4 846,-160.4 846,-230 846,-230 846,-236 840,-242 834,-242 834,-242 164,-242 164,-242 158,-242 152,-236 152,-230 152,-230 152,-160.4 152,-160.4 152,-154.4 158,-148.4 164,-148.4"/>
<text xml:space="preserve" text-anchor="start" x="305.53" y="-226.4" font-family="Helvetica,sans-Serif" font-weight="bold" font-size="14.00" fill="#0a6b7b">LAYER 3 · Inference — Python FastAPI on Hugging Face Space</text>
</g>
<g id="clust12" class="cluster">
<title>cluster_l4</title>
<path fill="#f2f5f9" stroke="#0a6b7b" stroke-width="2" d="M302,-8C302,-8 1212,-8 1212,-8 1218,-8 1224,-14 1224,-20 1224,-20 1224,-106.4 1224,-106.4 1224,-112.4 1218,-118.4 1212,-118.4 1212,-118.4 302,-118.4 302,-118.4 296,-118.4 290,-112.4 290,-106.4 290,-106.4 290,-20 290,-20 290,-14 296,-8 302,-8"/>
<text xml:space="preserve" text-anchor="start" x="625.2" y="-102.8" font-family="Helvetica,sans-Serif" font-weight="bold" font-size="14.00" fill="#0a6b7b">LAYER 4 · External Services &amp; Persistence</text>
</g>
<!-- user -->
<g id="node1" class="node">
<title>user</title>
<ellipse fill="#ffffff" stroke="#16233d" stroke-width="1.6" cx="85" cy="-984.08" rx="65.46" ry="31.68"/>
<text xml:space="preserve" text-anchor="start" x="56.46" y="-987.58" font-family="Helvetica,sans-Serif" font-weight="bold" font-size="13.00" fill="#16233d">End User</text>
<text xml:space="preserve" text-anchor="start" x="51.23" y="-971.68" font-family="Helvetica,sans-Serif" font-size="9.00" fill="#5b6b82">browses the web</text>
</g>
<!-- desktop -->
<g id="node3" class="node">
<title>desktop</title>
<path fill="#e3f4f6" stroke="#0e8fa3" stroke-width="1.6" d="M748.69,-1006.48C748.69,-1006.48 595.31,-1006.48 595.31,-1006.48 589.31,-1006.48 583.31,-1000.48 583.31,-994.48 583.31,-994.48 583.31,-973.68 583.31,-973.68 583.31,-967.68 589.31,-961.68 595.31,-961.68 595.31,-961.68 748.69,-961.68 748.69,-961.68 754.69,-961.68 760.69,-967.68 760.69,-973.68 760.69,-973.68 760.69,-994.48 760.69,-994.48 760.69,-1000.48 754.69,-1006.48 748.69,-1006.48"/>
<text xml:space="preserve" text-anchor="start" x="598.68" y="-987.58" font-family="Helvetica,sans-Serif" font-weight="bold" font-size="13.00" fill="#16233d">Electron Desktop Client</text>
<text xml:space="preserve" text-anchor="start" x="595.83" y="-971.68" font-family="Helvetica,sans-Serif" font-size="9.00" fill="#5b6b82">renderer + main · floating agent panel</text>
</g>
<!-- user&#45;&gt;desktop -->
<!-- analyst -->
<g id="node2" class="node">
<title>analyst</title>
<ellipse fill="#ffffff" stroke="#16233d" stroke-width="1.6" cx="272" cy="-984.08" rx="89.74" ry="31.68"/>
<text xml:space="preserve" text-anchor="start" x="221.06" y="-987.58" font-family="Helvetica,sans-Serif" font-weight="bold" font-size="13.00" fill="#16233d">Security Analyst</text>
<text xml:space="preserve" text-anchor="start" x="239.99" y="-971.68" font-family="Helvetica,sans-Serif" font-size="9.00" fill="#5b6b82">reviews verdicts</text>
</g>
<!-- apigw -->
<g id="node6" class="node">
<title>apigw</title>
<polygon fill="#0e8fa3" stroke="white" stroke-width="1.6" points="798.81,-862.6 545.19,-862.6 545.19,-817.8 798.81,-817.8 798.81,-862.6"/>
<text xml:space="preserve" text-anchor="start" x="613.48" y="-843.7" font-family="Helvetica,sans-Serif" font-weight="bold" font-size="13.00" fill="#16233d">REST API Gateway</text>
<text xml:space="preserve" text-anchor="start" x="557.71" y="-827.8" font-family="Helvetica,sans-Serif" font-size="9.00" fill="#5b6b82">/api/orchestrator · /sandbox · /cyberforge&#45;ml · Auth/JWT</text>
</g>
<!-- desktop&#45;&gt;apigw -->
<g id="edge3" class="edge">
<title>desktop&#45;&gt;apigw</title>
<path fill="none" stroke="#e8743b" stroke-width="2.4" d="M642.44,-960.96C642.44,-960.96 642.44,-875.39 642.44,-875.39"/>
<polygon fill="#e8743b" stroke="#e8743b" stroke-width="2.4" points="645.41,-875.39 642.44,-866.89 639.46,-875.39 645.41,-875.39"/>
<text xml:space="preserve" text-anchor="middle" x="702.56" y="-910.4" font-family="Helvetica,sans-Serif" font-weight="bold" font-size="10.00" fill="#e8743b">1 &#160;HTTPS/TLS</text>
</g>
<!-- browser -->
<g id="node4" class="node">
<title>browser</title>
<path fill="#ffffff" stroke="#0e8fa3" stroke-width="1.6" d="M507.79,-1006.48C507.79,-1006.48 406.21,-1006.48 406.21,-1006.48 400.21,-1006.48 394.21,-1000.48 394.21,-994.48 394.21,-994.48 394.21,-973.68 394.21,-973.68 394.21,-967.68 400.21,-961.68 406.21,-961.68 406.21,-961.68 507.79,-961.68 507.79,-961.68 513.79,-961.68 519.79,-967.68 519.79,-973.68 519.79,-973.68 519.79,-994.48 519.79,-994.48 519.79,-1000.48 513.79,-1006.48 507.79,-1006.48"/>
<text xml:space="preserve" text-anchor="start" x="415.46" y="-987.58" font-family="Helvetica,sans-Serif" font-weight="bold" font-size="13.00" fill="#16233d">Web Browser</text>
<text xml:space="preserve" text-anchor="start" x="406.73" y="-971.68" font-family="Helvetica,sans-Serif" font-size="9.00" fill="#5b6b82">Chrome · Firefox · Edge</text>
</g>
<!-- browser&#45;&gt;desktop -->
<!-- browser&#45;&gt;desktop -->
<g id="edge4" class="edge">
<title>browser&#45;&gt;desktop</title>
</g>
<!-- mobile -->
<g id="node5" class="node">
<title>mobile</title>
<path fill="#ffffff" stroke="#5b6b82" stroke-width="1.6" d="M901.55,-1006.48C901.55,-1006.48 804.45,-1006.48 804.45,-1006.48 798.45,-1006.48 792.45,-1000.48 792.45,-994.48 792.45,-994.48 792.45,-973.68 792.45,-973.68 792.45,-967.68 798.45,-961.68 804.45,-961.68 804.45,-961.68 901.55,-961.68 901.55,-961.68 907.55,-961.68 913.55,-967.68 913.55,-973.68 913.55,-973.68 913.55,-994.48 913.55,-994.48 913.55,-1000.48 907.55,-1006.48 901.55,-1006.48"/>
<text xml:space="preserve" text-anchor="start" x="812.56" y="-987.58" font-family="Helvetica,sans-Serif" font-weight="bold" font-size="13.00" fill="#16233d">Mobile Client</text>
<text xml:space="preserve" text-anchor="start" x="804.97" y="-971.68" font-family="Helvetica,sans-Serif" font-size="9.00" fill="#5b6b82">React Native — planned</text>
</g>
<!-- orch -->
<g id="node7" class="node">
<title>orch</title>
<path fill="#fff6de" stroke="#e8743b" stroke-width="1.6" d="M785.21,-739.8C785.21,-739.8 558.79,-739.8 558.79,-739.8 552.79,-739.8 546.79,-733.8 546.79,-727.8 546.79,-727.8 546.79,-707 546.79,-707 546.79,-701 552.79,-695 558.79,-695 558.79,-695 785.21,-695 785.21,-695 791.21,-695 797.21,-701 797.21,-707 797.21,-707 797.21,-727.8 797.21,-727.8 797.21,-733.8 791.21,-739.8 785.21,-739.8"/>
<text xml:space="preserve" text-anchor="start" x="559.31" y="-720.9" font-family="Helvetica,sans-Serif" font-weight="bold" font-size="13.00" fill="#16233d">Agent Orchestrator — DAG Executor</text>
<text xml:space="preserve" text-anchor="start" x="562.94" y="-705" font-family="Helvetica,sans-Serif" font-size="9.00" fill="#5b6b82">builds ScanContext · 3 staged dispatches · ring buffer</text>
</g>
<!-- apigw&#45;&gt;orch -->
<g id="edge5" class="edge">
<title>apigw&#45;&gt;orch</title>
<path fill="none" stroke="#e8743b" stroke-width="2.4" d="M672,-817.1C672,-817.1 672,-752.53 672,-752.53"/>
<polygon fill="#e8743b" stroke="#e8743b" stroke-width="2.4" points="674.98,-752.53 672,-744.03 669.03,-752.53 674.98,-752.53"/>
<text xml:space="preserve" text-anchor="middle" x="693.66" y="-775.8" font-family="Helvetica,sans-Serif" font-weight="bold" font-size="10.00" fill="#e8743b">2 &#160;dispatch</text>
</g>
<!-- a_url -->
<g id="node8" class="node">
<title>a_url</title>
<path fill="#fce6e2" stroke="#c0392b" stroke-width="1.6" d="M504.79,-609.6C504.79,-609.6 393.21,-609.6 393.21,-609.6 387.21,-609.6 381.21,-603.6 381.21,-597.6 381.21,-597.6 381.21,-576.8 381.21,-576.8 381.21,-570.8 387.21,-564.8 393.21,-564.8 393.21,-564.8 504.79,-564.8 504.79,-564.8 510.79,-564.8 516.79,-570.8 516.79,-576.8 516.79,-576.8 516.79,-597.6 516.79,-597.6 516.79,-603.6 510.79,-609.6 504.79,-609.6"/>
<text xml:space="preserve" text-anchor="start" x="393.73" y="-590.7" font-family="Helvetica,sans-Serif" font-weight="bold" font-size="13.00" fill="#16233d">1 · URL Classifier</text>
<text xml:space="preserve" text-anchor="start" x="418.99" y="-574.8" font-family="Helvetica,sans-Serif" font-size="9.00" fill="#5b6b82">BERT phishing</text>
</g>
<!-- orch&#45;&gt;a_url -->
<g id="edge6" class="edge">
<title>orch&#45;&gt;a_url</title>
<path fill="none" stroke="#e8743b" stroke-width="2.4" d="M546.06,-717C498.43,-717 455.5,-717 455.5,-717 455.5,-717 455.5,-622.24 455.5,-622.24"/>
<polygon fill="#e8743b" stroke="#e8743b" stroke-width="2.4" points="458.48,-622.24 455.5,-613.74 452.53,-622.24 458.48,-622.24"/>
<text xml:space="preserve" text-anchor="middle" x="579.86" y="-653" font-family="Helvetica,sans-Serif" font-weight="bold" font-size="10.00" fill="#e8743b">3 &#160;Stage 1</text>
</g>
<!-- a_dga -->
<g id="node9" class="node">
<title>a_dga</title>
<path fill="#fce6e2" stroke="#c0392b" stroke-width="1.6" d="M668.98,-609.6C668.98,-609.6 561.02,-609.6 561.02,-609.6 555.02,-609.6 549.02,-603.6 549.02,-597.6 549.02,-597.6 549.02,-576.8 549.02,-576.8 549.02,-570.8 555.02,-564.8 561.02,-564.8 561.02,-564.8 668.98,-564.8 668.98,-564.8 674.98,-564.8 680.98,-570.8 680.98,-576.8 680.98,-576.8 680.98,-597.6 680.98,-597.6 680.98,-603.6 674.98,-609.6 668.98,-609.6"/>
<text xml:space="preserve" text-anchor="start" x="561.54" y="-590.7" font-family="Helvetica,sans-Serif" font-weight="bold" font-size="13.00" fill="#16233d">2 · DGA Detector</text>
<text xml:space="preserve" text-anchor="start" x="580.72" y="-574.8" font-family="Helvetica,sans-Serif" font-size="9.00" fill="#5b6b82">Shannon entropy</text>
</g>
<!-- orch&#45;&gt;a_dga -->
<g id="edge7" class="edge">
<title>orch&#45;&gt;a_dga</title>
<path fill="none" stroke="#e8743b" stroke-width="2.4" d="M615,-694.42C615,-694.42 615,-622.52 615,-622.52"/>
<polygon fill="#e8743b" stroke="#e8743b" stroke-width="2.4" points="617.98,-622.52 615,-614.02 612.03,-622.52 617.98,-622.52"/>
</g>
<!-- a_scrap -->
<g id="node10" class="node">
<title>a_scrap</title>
<path fill="#fce6e2" stroke="#c0392b" stroke-width="1.6" d="M827.09,-609.6C827.09,-609.6 724.91,-609.6 724.91,-609.6 718.91,-609.6 712.91,-603.6 712.91,-597.6 712.91,-597.6 712.91,-576.8 712.91,-576.8 712.91,-570.8 718.91,-564.8 724.91,-564.8 724.91,-564.8 827.09,-564.8 827.09,-564.8 833.09,-564.8 839.09,-570.8 839.09,-576.8 839.09,-576.8 839.09,-597.6 839.09,-597.6 839.09,-603.6 833.09,-609.6 827.09,-609.6"/>
<text xml:space="preserve" text-anchor="start" x="725.43" y="-590.7" font-family="Helvetica,sans-Serif" font-weight="bold" font-size="13.00" fill="#16233d">3 · Web Scraper</text>
<text xml:space="preserve" text-anchor="start" x="732.98" y="-574.8" font-family="Helvetica,sans-Serif" font-size="9.00" fill="#5b6b82">DOM · net · headers</text>
</g>
<!-- orch&#45;&gt;a_scrap -->
<g id="edge8" class="edge">
<title>orch&#45;&gt;a_scrap</title>
<path fill="none" stroke="#e8743b" stroke-width="2.4" d="M755.06,-694.42C755.06,-694.42 755.06,-622.52 755.06,-622.52"/>
<polygon fill="#e8743b" stroke="#e8743b" stroke-width="2.4" points="758.03,-622.52 755.06,-614.02 752.08,-622.52 758.03,-622.52"/>
</g>
<!-- a_mem -->
<g id="node11" class="node">
<title>a_mem</title>
<path fill="#fce6e2" stroke="#c0392b" stroke-width="1.6" d="M1003.13,-609.6C1003.13,-609.6 882.87,-609.6 882.87,-609.6 876.87,-609.6 870.87,-603.6 870.87,-597.6 870.87,-597.6 870.87,-576.8 870.87,-576.8 870.87,-570.8 876.87,-564.8 882.87,-564.8 882.87,-564.8 1003.13,-564.8 1003.13,-564.8 1009.13,-564.8 1015.13,-570.8 1015.13,-576.8 1015.13,-576.8 1015.13,-597.6 1015.13,-597.6 1015.13,-603.6 1009.13,-609.6 1003.13,-609.6"/>
<text xml:space="preserve" text-anchor="start" x="883.39" y="-590.7" font-family="Helvetica,sans-Serif" font-weight="bold" font-size="13.00" fill="#16233d">4 · Memory Reader</text>
<text xml:space="preserve" text-anchor="start" x="913.74" y="-574.8" font-family="Helvetica,sans-Serif" font-size="9.00" fill="#5b6b82">domain history</text>
</g>
<!-- orch&#45;&gt;a_mem -->
<g id="edge9" class="edge">
<title>orch&#45;&gt;a_mem</title>
<path fill="none" stroke="#e8743b" stroke-width="2.4" d="M797.86,-717C847.19,-717 892.21,-717 892.21,-717 892.21,-717 892.21,-622.24 892.21,-622.24"/>
<polygon fill="#e8743b" stroke="#e8743b" stroke-width="2.4" points="895.19,-622.24 892.21,-613.74 889.24,-622.24 895.19,-622.24"/>
</g>
<!-- reporter -->
<g id="node16" class="node">
<title>reporter</title>
<path fill="#fff6de" stroke="#1f9d57" stroke-width="1.6" d="M1002.56,-339.8C1002.56,-339.8 849.44,-339.8 849.44,-339.8 843.44,-339.8 837.44,-333.8 837.44,-327.8 837.44,-327.8 837.44,-307 837.44,-307 837.44,-301 843.44,-295 849.44,-295 849.44,-295 1002.56,-295 1002.56,-295 1008.56,-295 1014.56,-301 1014.56,-307 1014.56,-307 1014.56,-327.8 1014.56,-327.8 1014.56,-333.8 1008.56,-339.8 1002.56,-339.8"/>
<text xml:space="preserve" text-anchor="start" x="866.77" y="-320.9" font-family="Helvetica,sans-Serif" font-weight="bold" font-size="13.00" fill="#16233d">R · Reporter Agent</text>
<text xml:space="preserve" text-anchor="start" x="849.96" y="-305" font-family="Helvetica,sans-Serif" font-size="9.00" fill="#5b6b82">blended score · escalation · narrative</text>
</g>
<!-- a_url&#45;&gt;reporter -->
<g id="edge22" class="edge">
<title>a_url&#45;&gt;reporter</title>
<path fill="none" stroke="#1f9d57" stroke-width="2" d="M508.27,-564.02C508.27,-518.76 508.27,-423 508.27,-423 508.27,-423 913,-423 913,-423 913,-423 913,-351.51 913,-351.51"/>
<polygon fill="#1f9d57" stroke="#1f9d57" stroke-width="2" points="913,-343.01 916.83,-351.51 913.5,-344.82 913.5,-351.51 913,-351.51 912.5,-351.51 912.5,-344.82 909.18,-351.51 913,-343.01"/>
</g>
<!-- fastapi -->
<g id="node20" class="node">
<title>fastapi</title>
<path fill="#dceef4" stroke="#0a6b7b" stroke-width="1.6" d="M282.26,-205.2C282.26,-205.2 175.74,-205.2 175.74,-205.2 169.74,-205.2 163.74,-199.2 163.74,-193.2 163.74,-193.2 163.74,-172.4 163.74,-172.4 163.74,-166.4 169.74,-160.4 175.74,-160.4 175.74,-160.4 282.26,-160.4 282.26,-160.4 288.26,-160.4 294.26,-166.4 294.26,-172.4 294.26,-172.4 294.26,-193.2 294.26,-193.2 294.26,-199.2 288.26,-205.2 282.26,-205.2"/>
<text xml:space="preserve" text-anchor="start" x="176.26" y="-186.3" font-family="Helvetica,sans-Serif" font-weight="bold" font-size="13.00" fill="#16233d">FastAPI Gateway</text>
<text xml:space="preserve" text-anchor="start" x="186.48" y="-170.4" font-family="Helvetica,sans-Serif" font-size="9.00" fill="#5b6b82">app.py · lazy loaders</text>
</g>
<!-- a_url&#45;&gt;fastapi -->
<g id="edge10" class="edge">
<title>a_url&#45;&gt;fastapi</title>
<path fill="none" stroke="#e8743b" stroke-width="2.4" d="M380.59,-587C310.04,-587 210.26,-587 210.26,-587 210.26,-587 210.26,-218.12 210.26,-218.12"/>
<polygon fill="#e8743b" stroke="#e8743b" stroke-width="2.4" points="213.23,-218.12 210.26,-209.62 207.28,-218.12 213.23,-218.12"/>
<text xml:space="preserve" text-anchor="middle" x="356.59" y="-584" font-family="Helvetica,sans-Serif" font-weight="bold" font-size="10.00" fill="#e8743b">4 BERT</text>
</g>
<!-- a_dga&#45;&gt;reporter -->
<g id="edge23" class="edge">
<title>a_dga&#45;&gt;reporter</title>
<path fill="none" stroke="#1f9d57" stroke-width="2" d="M670.12,-564.12C670.12,-509.92 670.12,-379 670.12,-379 670.12,-379 878.75,-379 878.75,-379 878.75,-379 878.75,-351.27 878.75,-351.27"/>
<polygon fill="#1f9d57" stroke="#1f9d57" stroke-width="2" points="878.75,-342.77 882.58,-351.27 879.25,-344.59 879.25,-351.27 878.75,-351.27 878.25,-351.27 878.25,-344.59 874.93,-351.27 878.75,-342.77"/>
</g>
<!-- a_dga&#45;&gt;fastapi -->
<g id="edge11" class="edge">
<title>a_dga&#45;&gt;fastapi</title>
<path fill="none" stroke="#0e8fa3" stroke-width="1.9" d="M604.14,-564.3C604.14,-550.66 604.14,-536 604.14,-536 604.14,-536 238.26,-536 238.26,-536 238.26,-536 238.26,-217.35 238.26,-217.35"/>
<polygon fill="#0e8fa3" stroke="#0e8fa3" stroke-width="1.9" points="241.24,-217.35 238.26,-208.85 235.29,-217.35 241.24,-217.35"/>
</g>
<!-- a_ioc -->
<g id="node12" class="node">
<title>a_ioc</title>
<path fill="#def3e6" stroke="#1e8449" stroke-width="1.6" d="M647.26,-471C647.26,-471 540.74,-471 540.74,-471 534.74,-471 528.74,-465 528.74,-459 528.74,-459 528.74,-438.2 528.74,-438.2 528.74,-432.2 534.74,-426.2 540.74,-426.2 540.74,-426.2 647.26,-426.2 647.26,-426.2 653.26,-426.2 659.26,-432.2 659.26,-438.2 659.26,-438.2 659.26,-459 659.26,-459 659.26,-465 653.26,-471 647.26,-471"/>
<text xml:space="preserve" text-anchor="start" x="541.26" y="-452.1" font-family="Helvetica,sans-Serif" font-weight="bold" font-size="13.00" fill="#16233d">5 · IOC Extractor</text>
<text xml:space="preserve" text-anchor="start" x="558.98" y="-436.2" font-family="Helvetica,sans-Serif" font-size="9.00" fill="#5b6b82">10 regex patterns</text>
</g>
<!-- a_scrap&#45;&gt;a_ioc -->
<g id="edge17" class="edge">
<title>a_scrap&#45;&gt;a_ioc</title>
<path fill="none" stroke="#1f9d57" stroke-width="2" stroke-dasharray="5,2" d="M712.18,-587C697.55,-587 686.21,-587 686.21,-587 686.21,-587 686.21,-449 686.21,-449 686.21,-449 671.56,-449 671.56,-449"/>
<polygon fill="#1f9d57" stroke="#1f9d57" stroke-width="2" points="671.56,-446.03 663.06,-449 671.56,-451.98 671.56,-446.03"/>
<text xml:space="preserve" text-anchor="middle" x="681.44" y="-522.8" font-family="Helvetica,sans-Serif" font-weight="bold" font-size="10.00" fill="#1f9d57">6 &#160;page</text>
</g>
<!-- a_behav -->
<g id="node13" class="node">
<title>a_behav</title>
<path fill="#def3e6" stroke="#1e8449" stroke-width="1.6" d="M800.57,-471C800.57,-471 703.43,-471 703.43,-471 697.43,-471 691.43,-465 691.43,-459 691.43,-459 691.43,-438.2 691.43,-438.2 691.43,-432.2 697.43,-426.2 703.43,-426.2 703.43,-426.2 800.57,-426.2 800.57,-426.2 806.57,-426.2 812.57,-432.2 812.57,-438.2 812.57,-438.2 812.57,-459 812.57,-459 812.57,-465 806.57,-471 800.57,-471"/>
<text xml:space="preserve" text-anchor="start" x="703.95" y="-452.1" font-family="Helvetica,sans-Serif" font-weight="bold" font-size="13.00" fill="#16233d">6 · Behavioural</text>
<text xml:space="preserve" text-anchor="start" x="715.23" y="-436.2" font-family="Helvetica,sans-Serif" font-size="9.00" fill="#5b6b82">net · JS · cookies</text>
</g>
<!-- a_scrap&#45;&gt;a_behav -->
<g id="edge18" class="edge">
<title>a_scrap&#45;&gt;a_behav</title>
<path fill="none" stroke="#1f9d57" stroke-width="2" stroke-dasharray="5,2" d="M779.35,-564C779.35,-564 779.35,-482.94 779.35,-482.94"/>
<polygon fill="#1f9d57" stroke="#1f9d57" stroke-width="2" points="782.32,-482.94 779.35,-474.44 776.37,-482.94 782.32,-482.94"/>
</g>
<!-- a_mitre -->
<g id="node14" class="node">
<title>a_mitre</title>
<path fill="#def3e6" stroke="#1e8449" stroke-width="1.6" d="M969.5,-471C969.5,-471 856.5,-471 856.5,-471 850.5,-471 844.5,-465 844.5,-459 844.5,-459 844.5,-438.2 844.5,-438.2 844.5,-432.2 850.5,-426.2 856.5,-426.2 856.5,-426.2 969.5,-426.2 969.5,-426.2 975.5,-426.2 981.5,-432.2 981.5,-438.2 981.5,-438.2 981.5,-459 981.5,-459 981.5,-465 975.5,-471 969.5,-471"/>
<text xml:space="preserve" text-anchor="start" x="857.02" y="-452.1" font-family="Helvetica,sans-Serif" font-weight="bold" font-size="13.00" fill="#16233d">7 · MITRE Mapper</text>
<text xml:space="preserve" text-anchor="start" x="875.74" y="-436.2" font-family="Helvetica,sans-Serif" font-size="9.00" fill="#5b6b82">20&#45;signal ATT&amp;CK</text>
</g>
<!-- a_scrap&#45;&gt;a_mitre -->
<g id="edge19" class="edge">
<title>a_scrap&#45;&gt;a_mitre</title>
<path fill="none" stroke="#1f9d57" stroke-width="2" stroke-dasharray="5,2" d="M839.56,-587C850.1,-587 857.69,-587 857.69,-587 857.69,-587 857.69,-483.29 857.69,-483.29"/>
<polygon fill="#1f9d57" stroke="#1f9d57" stroke-width="2" points="860.66,-483.29 857.69,-474.79 854.71,-483.29 860.66,-483.29"/>
</g>
<!-- webscr -->
<g id="node26" class="node">
<title>webscr</title>
<path fill="#ffffff" stroke="#0e8fa3" stroke-width="1.6" d="M424.07,-73.2C424.07,-73.2 313.93,-73.2 313.93,-73.2 307.93,-73.2 301.93,-67.2 301.93,-61.2 301.93,-61.2 301.93,-40.4 301.93,-40.4 301.93,-34.4 307.93,-28.4 313.93,-28.4 313.93,-28.4 424.07,-28.4 424.07,-28.4 430.07,-28.4 436.07,-34.4 436.07,-40.4 436.07,-40.4 436.07,-61.2 436.07,-61.2 436.07,-67.2 430.07,-73.2 424.07,-73.2"/>
<text xml:space="preserve" text-anchor="start" x="314.45" y="-54.3" font-family="Helvetica,sans-Serif" font-weight="bold" font-size="13.00" fill="#16233d">WebScrapper.live</text>
<text xml:space="preserve" text-anchor="start" x="325.98" y="-38.4" font-family="Helvetica,sans-Serif" font-size="9.00" fill="#5b6b82">DOM · net · headers</text>
</g>
<!-- a_scrap&#45;&gt;webscr -->
<g id="edge14" class="edge">
<title>a_scrap&#45;&gt;webscr</title>
<path fill="none" stroke="#0e8fa3" stroke-width="1.9" d="M746.13,-564.29C746.13,-540.9 746.13,-508 746.13,-508 746.13,-508 329.82,-508 329.82,-508 329.82,-508 329.82,-85.16 329.82,-85.16"/>
<polygon fill="#0e8fa3" stroke="#0e8fa3" stroke-width="1.9" points="332.8,-85.16 329.82,-76.66 326.85,-85.16 332.8,-85.16"/>
<text xml:space="preserve" text-anchor="middle" x="735.98" y="-539.54" font-family="Helvetica,sans-Serif" font-weight="bold" font-size="10.00" fill="#0a6b7b">5 scrape</text>
</g>
<!-- a_mem&#45;&gt;reporter -->
<g id="edge24" class="edge">
<title>a_mem&#45;&gt;reporter</title>
<path fill="none" stroke="#1f9d57" stroke-width="2" d="M989.77,-564.2C989.77,-564.2 989.77,-351.28 989.77,-351.28"/>
<polygon fill="#1f9d57" stroke="#1f9d57" stroke-width="2" points="989.77,-342.78 993.59,-351.28 990.27,-344.59 990.27,-351.28 989.77,-351.28 989.27,-351.28 989.27,-344.59 985.94,-351.28 989.77,-342.78"/>
</g>
<!-- redis -->
<g id="node17" class="node">
<title>redis</title>
<path fill="#e3f4f6" stroke="#0a6b7b" stroke-width="1.6" d="M1129.04,-473.8C1129.04,-476.89 1110.64,-479.4 1088,-479.4 1065.36,-479.4 1046.96,-476.89 1046.96,-473.8 1046.96,-473.8 1046.96,-423.4 1046.96,-423.4 1046.96,-420.31 1065.36,-417.8 1088,-417.8 1110.64,-417.8 1129.04,-420.31 1129.04,-423.4 1129.04,-423.4 1129.04,-473.8 1129.04,-473.8"/>
<path fill="none" stroke="#0a6b7b" stroke-width="1.6" d="M1129.04,-473.8C1129.04,-470.71 1110.64,-468.2 1088,-468.2 1065.36,-468.2 1046.96,-470.71 1046.96,-473.8"/>
<text xml:space="preserve" text-anchor="start" x="1070.3" y="-452.1" font-family="Helvetica,sans-Serif" font-weight="bold" font-size="13.00" fill="#16233d">Redis</text>
<text xml:space="preserve" text-anchor="start" x="1059.48" y="-436.2" font-family="Helvetica,sans-Serif" font-size="9.00" fill="#5b6b82">session cache</text>
</g>
<!-- a_mem&#45;&gt;redis -->
<g id="edge16" class="edge">
<title>a_mem&#45;&gt;redis</title>
<path fill="none" stroke="#0e8fa3" stroke-width="1.9" d="M1006.3,-564.22C1006.3,-531.4 1006.3,-475 1006.3,-475 1006.3,-475 1034.82,-475 1034.82,-475"/>
<polygon fill="#0e8fa3" stroke="#0e8fa3" stroke-width="1.9" points="1034.82,-477.98 1043.32,-475 1034.82,-472.03 1034.82,-477.98"/>
</g>
<!-- domain -->
<g id="node19" class="node">
<title>domain</title>
<path fill="#e3f4f6" stroke="#0a6b7b" stroke-width="1.6" d="M1456.56,-473.8C1456.56,-476.89 1429.41,-479.4 1396,-479.4 1362.59,-479.4 1335.44,-476.89 1335.44,-473.8 1335.44,-473.8 1335.44,-423.4 1335.44,-423.4 1335.44,-420.31 1362.59,-417.8 1396,-417.8 1429.41,-417.8 1456.56,-420.31 1456.56,-423.4 1456.56,-423.4 1456.56,-473.8 1456.56,-473.8"/>
<path fill="none" stroke="#0a6b7b" stroke-width="1.6" d="M1456.56,-473.8C1456.56,-470.71 1429.41,-468.2 1396,-468.2 1362.59,-468.2 1335.44,-470.71 1335.44,-473.8"/>
<text xml:space="preserve" text-anchor="start" x="1347.96" y="-452.1" font-family="Helvetica,sans-Serif" font-weight="bold" font-size="13.00" fill="#16233d">Domain History</text>
<text xml:space="preserve" text-anchor="start" x="1365.24" y="-436.2" font-family="Helvetica,sans-Serif" font-size="9.00" fill="#5b6b82">in&#45;process Map</text>
</g>
<!-- a_mem&#45;&gt;domain -->
<g id="edge15" class="edge">
<title>a_mem&#45;&gt;domain</title>
<path fill="none" stroke="#0e8fa3" stroke-width="1.9" d="M1015.78,-587C1143.83,-587 1396,-587 1396,-587 1396,-587 1396,-491.38 1396,-491.38"/>
<polygon fill="#0e8fa3" stroke="#0e8fa3" stroke-width="1.9" points="1398.98,-491.38 1396,-482.88 1393.03,-491.38 1398.98,-491.38"/>
</g>
<!-- a_intel -->
<g id="node15" class="node">
<title>a_intel</title>
<path fill="#ebe2f7" stroke="#6c3fbf" stroke-width="1.6" d="M701.75,-339.8C701.75,-339.8 608.25,-339.8 608.25,-339.8 602.25,-339.8 596.25,-333.8 596.25,-327.8 596.25,-327.8 596.25,-307 596.25,-307 596.25,-301 602.25,-295 608.25,-295 608.25,-295 701.75,-295 701.75,-295 707.75,-295 713.75,-301 713.75,-307 713.75,-307 713.75,-327.8 713.75,-327.8 713.75,-333.8 707.75,-339.8 701.75,-339.8"/>
<text xml:space="preserve" text-anchor="start" x="608.77" y="-320.9" font-family="Helvetica,sans-Serif" font-weight="bold" font-size="13.00" fill="#16233d">8 · Threat&#45;Intel</text>
<text xml:space="preserve" text-anchor="start" x="619.23" y="-305" font-family="Helvetica,sans-Serif" font-size="9.00" fill="#5b6b82">OTX pulse lookup</text>
</g>
<!-- a_ioc&#45;&gt;a_intel -->
<g id="edge20" class="edge">
<title>a_ioc&#45;&gt;a_intel</title>
<path fill="none" stroke="#7c5cd6" stroke-width="2" d="M627.75,-425.45C627.75,-425.45 627.75,-351.85 627.75,-351.85"/>
<polygon fill="#7c5cd6" stroke="#7c5cd6" stroke-width="2" points="630.73,-351.85 627.75,-343.35 624.78,-351.85 630.73,-351.85"/>
<text xml:space="preserve" text-anchor="middle" x="639.56" y="-375.8" font-family="Helvetica,sans-Serif" font-weight="bold" font-size="10.00" fill="#7c5cd6">7 &#160;IOCs</text>
</g>
<!-- a_behav&#45;&gt;reporter -->
<g id="edge25" class="edge">
<title>a_behav&#45;&gt;reporter</title>
<path fill="none" stroke="#1f9d57" stroke-width="2" d="M763.16,-425.54C763.16,-390.79 763.16,-329 763.16,-329 763.16,-329 826.02,-329 826.02,-329"/>
<polygon fill="#1f9d57" stroke="#1f9d57" stroke-width="2" points="834.52,-329 826.02,-332.83 832.71,-329.5 826.02,-329.5 826.02,-329 826.02,-328.5 832.71,-328.5 826.02,-325.18 834.52,-329"/>
</g>
<!-- a_mitre&#45;&gt;reporter -->
<g id="edge26" class="edge">
<title>a_mitre&#45;&gt;reporter</title>
<path fill="none" stroke="#1f9d57" stroke-width="2" d="M947.25,-425.45C947.25,-425.45 947.25,-351.26 947.25,-351.26"/>
<polygon fill="#1f9d57" stroke="#1f9d57" stroke-width="2" points="947.25,-342.76 951.08,-351.26 947.75,-344.57 947.75,-351.26 947.25,-351.26 946.75,-351.26 946.75,-344.57 943.43,-351.26 947.25,-342.76"/>
</g>
<!-- a_intel&#45;&gt;reporter -->
<g id="edge27" class="edge">
<title>a_intel&#45;&gt;reporter</title>
<path fill="none" stroke="#1f9d57" stroke-width="2" d="M714.47,-317C714.47,-317 825.86,-317 825.86,-317"/>
<polygon fill="#1f9d57" stroke="#1f9d57" stroke-width="2" points="834.36,-317 825.86,-320.83 832.54,-317.5 825.86,-317.5 825.86,-317 825.86,-316.5 832.54,-316.5 825.86,-313.18 834.36,-317"/>
</g>
<!-- otx -->
<g id="node25" class="node">
<title>otx</title>
<path fill="#ffffff" stroke="#c0392b" stroke-width="1.6" d="M911.47,-73.2C911.47,-73.2 816.53,-73.2 816.53,-73.2 810.53,-73.2 804.53,-67.2 804.53,-61.2 804.53,-61.2 804.53,-40.4 804.53,-40.4 804.53,-34.4 810.53,-28.4 816.53,-28.4 816.53,-28.4 911.47,-28.4 911.47,-28.4 917.47,-28.4 923.47,-34.4 923.47,-40.4 923.47,-40.4 923.47,-61.2 923.47,-61.2 923.47,-67.2 917.47,-73.2 911.47,-73.2"/>
<text xml:space="preserve" text-anchor="start" x="817.05" y="-54.3" font-family="Helvetica,sans-Serif" font-weight="bold" font-size="13.00" fill="#16233d">AlienVault OTX</text>
<text xml:space="preserve" text-anchor="start" x="828.48" y="-38.4" font-family="Helvetica,sans-Serif" font-size="9.00" fill="#5b6b82">threat&#45;intel pulses</text>
</g>
<!-- a_intel&#45;&gt;otx -->
<g id="edge21" class="edge">
<title>a_intel&#45;&gt;otx</title>
<path fill="none" stroke="#c0392b" stroke-width="1.9" d="M670.22,-294.49C670.22,-242.68 670.22,-121 670.22,-121 670.22,-121 819.04,-121 819.04,-121 819.04,-121 819.04,-85.16 819.04,-85.16"/>
<polygon fill="#c0392b" stroke="#c0392b" stroke-width="1.9" points="822.02,-85.16 819.04,-76.66 816.07,-85.16 822.02,-85.16"/>
<text xml:space="preserve" text-anchor="middle" x="915.49" y="-179.8" font-family="Helvetica,sans-Serif" font-weight="bold" font-size="10.00" fill="#c0392b">8 &#160;enrich</text>
</g>
<!-- reporter&#45;&gt;desktop -->
<g id="edge34" class="edge">
<title>reporter&#45;&gt;desktop</title>
<path fill="none" stroke="#1f9d57" stroke-width="2.4" d="M1015.09,-325C1024.68,-325 1031.05,-325 1031.05,-325 1031.05,-325 1031.05,-907 1031.05,-907 1031.05,-907 701.56,-907 701.56,-907 701.56,-907 701.56,-948.82 701.56,-948.82"/>
<polygon fill="#1f9d57" stroke="#1f9d57" stroke-width="2.4" points="698.59,-948.82 701.56,-957.32 704.54,-948.82 698.59,-948.82"/>
<text xml:space="preserve" text-anchor="middle" x="1042.28" y="-315.32" font-family="Helvetica,sans-Serif" font-weight="bold" font-size="10.00" fill="#1f9d57">consolidated</text>
<text xml:space="preserve" text-anchor="middle" x="1042.28" y="-303.32" font-family="Helvetica,sans-Serif" font-weight="bold" font-size="10.00" fill="#1f9d57">report</text>
</g>
<!-- reporter&#45;&gt;redis -->
<g id="edge33" class="edge">
<title>reporter&#45;&gt;redis</title>
<path fill="none" stroke="#1f9d57" stroke-width="2" stroke-dasharray="5,2" d="M998.03,-340.39C998.03,-370.91 998.03,-421 998.03,-421 998.03,-421 1034.65,-421 1034.65,-421"/>
<polygon fill="#1f9d57" stroke="#1f9d57" stroke-width="2" points="1034.65,-423.98 1043.15,-421 1034.65,-418.03 1034.65,-423.98"/>
<text xml:space="preserve" text-anchor="middle" x="878.38" y="-375.8" font-family="Helvetica,sans-Serif" font-weight="bold" font-size="10.00" fill="#1f9d57">write&#45;back</text>
</g>
<!-- llm -->
<g id="node23" class="node">
<title>llm</title>
<path fill="#fff6de" stroke="#7c5cd6" stroke-width="1.6" d="M821.56,-205.2C821.56,-205.2 698.44,-205.2 698.44,-205.2 692.44,-205.2 686.44,-199.2 686.44,-193.2 686.44,-193.2 686.44,-172.4 686.44,-172.4 686.44,-166.4 692.44,-160.4 698.44,-160.4 698.44,-160.4 821.56,-160.4 821.56,-160.4 827.56,-160.4 833.56,-166.4 833.56,-172.4 833.56,-172.4 833.56,-193.2 833.56,-193.2 833.56,-199.2 827.56,-205.2 821.56,-205.2"/>
<text xml:space="preserve" text-anchor="start" x="698.96" y="-186.3" font-family="Helvetica,sans-Serif" font-weight="bold" font-size="13.00" fill="#16233d">LLM Fallback Chain</text>
<text xml:space="preserve" text-anchor="start" x="703.24" y="-170.4" font-family="Helvetica,sans-Serif" font-size="9.00" fill="#5b6b82">Gemini → Mistral → heuristic</text>
</g>
<!-- reporter&#45;&gt;llm -->
<g id="edge28" class="edge">
<title>reporter&#45;&gt;llm</title>
<path fill="none" stroke="#7c5cd6" stroke-width="2" d="M836.94,-306C828.53,-306 823.06,-306 823.06,-306 823.06,-306 823.06,-217.5 823.06,-217.5"/>
<polygon fill="#7c5cd6" stroke="#7c5cd6" stroke-width="2" points="826.04,-217.5 823.06,-209 820.09,-217.5 826.04,-217.5"/>
<text xml:space="preserve" text-anchor="middle" x="974.77" y="-253" font-family="Helvetica,sans-Serif" font-weight="bold" font-size="10.00" fill="#7c5cd6">9 &#160;narrative</text>
</g>
<!-- appwrite -->
<g id="node24" class="node">
<title>appwrite</title>
<path fill="#fbe7e5" stroke="#c0392b" stroke-width="1.6" d="M1076.54,-76C1076.54,-79.09 1049.41,-81.6 1016,-81.6 982.59,-81.6 955.46,-79.09 955.46,-76 955.46,-76 955.46,-25.6 955.46,-25.6 955.46,-22.51 982.59,-20 1016,-20 1049.41,-20 1076.54,-22.51 1076.54,-25.6 1076.54,-25.6 1076.54,-76 1076.54,-76"/>
<path fill="none" stroke="#c0392b" stroke-width="1.6" d="M1076.54,-76C1076.54,-72.91 1049.41,-70.4 1016,-70.4 982.59,-70.4 955.46,-72.91 955.46,-76"/>
<text xml:space="preserve" text-anchor="start" x="967.98" y="-54.3" font-family="Helvetica,sans-Serif" font-weight="bold" font-size="13.00" fill="#16233d">Appwrite Cloud</text>
<text xml:space="preserve" text-anchor="start" x="973.49" y="-38.4" font-family="Helvetica,sans-Serif" font-size="9.00" fill="#5b6b82">users · tasks · alerts</text>
</g>
<!-- reporter&#45;&gt;appwrite -->
<g id="edge31" class="edge">
<title>reporter&#45;&gt;appwrite</title>
<path fill="none" stroke="#c0392b" stroke-width="1.9" d="M985.01,-294.21C985.01,-294.21 985.01,-93.63 985.01,-93.63"/>
<polygon fill="#c0392b" stroke="#c0392b" stroke-width="1.9" points="987.98,-93.63 985.01,-85.13 982.03,-93.63 987.98,-93.63"/>
<text xml:space="preserve" text-anchor="middle" x="1029.05" y="-179.8" font-family="Helvetica,sans-Serif" font-weight="bold" font-size="10.00" fill="#c0392b">persist</text>
</g>
<!-- pdf -->
<g id="node29" class="node">
<title>pdf</title>
<path fill="#ffffff" stroke="#1f9d57" stroke-width="1.6" d="M1211.88,-76C1211.88,-79.09 1188.63,-81.6 1160,-81.6 1131.37,-81.6 1108.12,-79.09 1108.12,-76 1108.12,-76 1108.12,-25.6 1108.12,-25.6 1108.12,-22.51 1131.37,-20 1160,-20 1188.63,-20 1211.88,-22.51 1211.88,-25.6 1211.88,-25.6 1211.88,-76 1211.88,-76"/>
<path fill="none" stroke="#1f9d57" stroke-width="1.6" d="M1211.88,-76C1211.88,-72.91 1188.63,-70.4 1160,-70.4 1131.37,-70.4 1108.12,-72.91 1108.12,-76"/>
<text xml:space="preserve" text-anchor="start" x="1120.64" y="-54.3" font-family="Helvetica,sans-Serif" font-weight="bold" font-size="13.00" fill="#16233d">PDF Reports</text>
<text xml:space="preserve" text-anchor="start" x="1135.49" y="-38.4" font-family="Helvetica,sans-Serif" font-size="9.00" fill="#5b6b82">pdfkit export</text>
</g>
<!-- reporter&#45;&gt;pdf -->
<g id="edge32" class="edge">
<title>reporter&#45;&gt;pdf</title>
<path fill="none" stroke="#1f9d57" stroke-width="2" d="M1015.24,-310C1065.62,-310 1118.58,-310 1118.58,-310 1118.58,-310 1118.58,-92.31 1118.58,-92.31"/>
<polygon fill="#1f9d57" stroke="#1f9d57" stroke-width="2" points="1121.55,-92.31 1118.58,-83.81 1115.6,-92.31 1121.55,-92.31"/>
</g>
<!-- vec -->
<g id="node18" class="node">
<title>vec</title>
<path fill="#e3f4f6" stroke="#0a6b7b" stroke-width="1.6" d="M1303.39,-473.8C1303.39,-476.89 1271.39,-479.4 1232,-479.4 1192.61,-479.4 1160.61,-476.89 1160.61,-473.8 1160.61,-473.8 1160.61,-423.4 1160.61,-423.4 1160.61,-420.31 1192.61,-417.8 1232,-417.8 1271.39,-417.8 1303.39,-420.31 1303.39,-423.4 1303.39,-423.4 1303.39,-473.8 1303.39,-473.8"/>
<path fill="none" stroke="#0a6b7b" stroke-width="1.6" d="M1303.39,-473.8C1303.39,-470.71 1271.39,-468.2 1232,-468.2 1192.61,-468.2 1160.61,-470.71 1160.61,-473.8"/>
<text xml:space="preserve" text-anchor="start" x="1173.13" y="-452.1" font-family="Helvetica,sans-Serif" font-weight="bold" font-size="13.00" fill="#16233d">Pinecone / Chroma</text>
<text xml:space="preserve" text-anchor="start" x="1207.48" y="-436.2" font-family="Helvetica,sans-Serif" font-size="9.00" fill="#5b6b82">embeddings</text>
</g>
<!-- bert -->
<g id="node21" class="node">
<title>bert</title>
<path fill="#ffffff" stroke="#0a6b7b" stroke-width="1.6" d="M641.99,-205.2C641.99,-205.2 516.01,-205.2 516.01,-205.2 510.01,-205.2 504.01,-199.2 504.01,-193.2 504.01,-193.2 504.01,-172.4 504.01,-172.4 504.01,-166.4 510.01,-160.4 516.01,-160.4 516.01,-160.4 641.99,-160.4 641.99,-160.4 647.99,-160.4 653.99,-166.4 653.99,-172.4 653.99,-172.4 653.99,-193.2 653.99,-193.2 653.99,-199.2 647.99,-205.2 641.99,-205.2"/>
<text xml:space="preserve" text-anchor="start" x="516.53" y="-186.3" font-family="Helvetica,sans-Serif" font-weight="bold" font-size="13.00" fill="#16233d">URL&#45;Phishing BERT</text>
<text xml:space="preserve" text-anchor="start" x="524.49" y="-170.4" font-family="Helvetica,sans-Serif" font-size="9.00" fill="#5b6b82">elftsdmr/malware&#45;url&#45;detect</text>
</g>
<!-- fastapi&#45;&gt;bert -->
<g id="edge12" class="edge">
<title>fastapi&#45;&gt;bert</title>
<path fill="none" stroke="#0e8fa3" stroke-width="1.9" d="M266.26,-205.93C266.26,-225.36 266.26,-250 266.26,-250 266.26,-250 512.53,-250 512.53,-250 512.53,-250 512.53,-217.3 512.53,-217.3"/>
<polygon fill="#0e8fa3" stroke="#0e8fa3" stroke-width="1.9" points="515.51,-217.3 512.53,-208.8 509.56,-217.3 515.51,-217.3"/>
</g>
<!-- dgam -->
<g id="node22" class="node">
<title>dgam</title>
<path fill="#ffffff" stroke="#0a6b7b" stroke-width="1.6" d="M460.29,-205.2C460.29,-205.2 369.71,-205.2 369.71,-205.2 363.71,-205.2 357.71,-199.2 357.71,-193.2 357.71,-193.2 357.71,-172.4 357.71,-172.4 357.71,-166.4 363.71,-160.4 369.71,-160.4 369.71,-160.4 460.29,-160.4 460.29,-160.4 466.29,-160.4 472.29,-166.4 472.29,-172.4 472.29,-172.4 472.29,-193.2 472.29,-193.2 472.29,-199.2 466.29,-205.2 460.29,-205.2"/>
<text xml:space="preserve" text-anchor="start" x="370.93" y="-186.3" font-family="Helvetica,sans-Serif" font-weight="bold" font-size="13.00" fill="#16233d">DGA Heuristic</text>
<text xml:space="preserve" text-anchor="start" x="370.23" y="-170.4" font-family="Helvetica,sans-Serif" font-size="9.00" fill="#5b6b82">entropy · vowel · digit</text>
</g>
<!-- fastapi&#45;&gt;dgam -->
<g id="edge13" class="edge">
<title>fastapi&#45;&gt;dgam</title>
<path fill="none" stroke="#0e8fa3" stroke-width="1.9" d="M294.84,-183C294.84,-183 345.61,-183 345.61,-183"/>
<polygon fill="#0e8fa3" stroke="#0e8fa3" stroke-width="1.9" points="345.61,-185.98 354.11,-183 345.61,-180.03 345.61,-185.98"/>
</g>
<!-- gemini -->
<g id="node27" class="node">
<title>gemini</title>
<path fill="#ffffff" stroke="#7c5cd6" stroke-width="1.6" d="M760.39,-73.2C760.39,-73.2 641.61,-73.2 641.61,-73.2 635.61,-73.2 629.61,-67.2 629.61,-61.2 629.61,-61.2 629.61,-40.4 629.61,-40.4 629.61,-34.4 635.61,-28.4 641.61,-28.4 641.61,-28.4 760.39,-28.4 760.39,-28.4 766.39,-28.4 772.39,-34.4 772.39,-40.4 772.39,-40.4 772.39,-61.2 772.39,-61.2 772.39,-67.2 766.39,-73.2 760.39,-73.2"/>
<text xml:space="preserve" text-anchor="start" x="642.13" y="-54.3" font-family="Helvetica,sans-Serif" font-weight="bold" font-size="13.00" fill="#16233d">Google Gemini API</text>
<text xml:space="preserve" text-anchor="start" x="676" y="-38.4" font-family="Helvetica,sans-Serif" font-size="9.00" fill="#5b6b82">primary LLM</text>
</g>
<!-- llm&#45;&gt;gemini -->
<g id="edge29" class="edge">
<title>llm&#45;&gt;gemini</title>
<path fill="none" stroke="#7c5cd6" stroke-width="2" d="M743.74,-159.81C743.74,-159.81 743.74,-85.5 743.74,-85.5"/>
<polygon fill="#7c5cd6" stroke="#7c5cd6" stroke-width="2" points="746.72,-85.5 743.74,-77 740.77,-85.5 746.72,-85.5"/>
</g>
<!-- hfapi -->
<g id="node28" class="node">
<title>hfapi</title>
<path fill="#ffffff" stroke="#7c5cd6" stroke-width="1.6" d="M585.53,-73.2C585.53,-73.2 480.47,-73.2 480.47,-73.2 474.47,-73.2 468.47,-67.2 468.47,-61.2 468.47,-61.2 468.47,-40.4 468.47,-40.4 468.47,-34.4 474.47,-28.4 480.47,-28.4 480.47,-28.4 585.53,-28.4 585.53,-28.4 591.53,-28.4 597.53,-34.4 597.53,-40.4 597.53,-40.4 597.53,-61.2 597.53,-61.2 597.53,-67.2 591.53,-73.2 585.53,-73.2"/>
<text xml:space="preserve" text-anchor="start" x="480.99" y="-54.3" font-family="Helvetica,sans-Serif" font-weight="bold" font-size="13.00" fill="#16233d">HF Inference API</text>
<text xml:space="preserve" text-anchor="start" x="512.75" y="-38.4" font-family="Helvetica,sans-Serif" font-size="9.00" fill="#5b6b82">Mistral&#45;7B</text>
</g>
<!-- llm&#45;&gt;hfapi -->
<g id="edge30" class="edge">
<title>llm&#45;&gt;hfapi</title>
<path fill="none" stroke="#7c5cd6" stroke-width="2" d="M715.09,-159.84C715.09,-128.73 715.09,-77 715.09,-77 715.09,-77 550.77,-77 550.77,-77 550.77,-77 550.77,-76.68 550.77,-76.68"/>
<polygon fill="#7c5cd6" stroke="#7c5cd6" stroke-width="2" points="553.75,-85.31 550.77,-76.81 547.8,-85.31 553.75,-85.31"/>
</g>
</g>
</svg>
