<?xml version="1.0" encoding="UTF-8" standalone="no"?>
<!DOCTYPE svg PUBLIC "-//W3C//DTD SVG 1.1//EN"
 "http://www.w3.org/Graphics/SVG/1.1/DTD/svg11.dtd">
<!-- Generated by graphviz version 15.0.0 (0)
 -->
<!-- Title: cyberforge_class Pages: 1 -->
<svg width="1775pt" height="1027pt"
 viewBox="0.00 0.00 1775.00 1027.00" xmlns="http://www.w3.org/2000/svg" xmlns:xlink="http://www.w3.org/1999/xlink">
<g id="graph0" class="graph" transform="scale(1 1) rotate(0) translate(36 990.8)">
<title>cyberforge_class</title>
<polygon fill="white" stroke="none" points="-36,36 -36,-990.8 1738.98,-990.8 1738.98,36 -36,36"/>
<!-- Orchestrator -->
<g id="node1" class="node">
<title>Orchestrator</title>
<polygon fill="#b9770e" stroke="none" points="723.97,-786.6 723.97,-814.2 894.11,-814.2 894.11,-786.6 723.97,-786.6"/>
<polygon fill="none" stroke="#5a6b82" points="723.97,-786.6 723.97,-814.2 894.11,-814.2 894.11,-786.6 723.97,-786.6"/>
<text xml:space="preserve" text-anchor="start" x="751.25" y="-797.5" font-family="Helvetica,sans-Serif" font-weight="bold" font-size="13.00" fill="white">AgentOrchestrator</text>
<polygon fill="none" stroke="#5a6b82" points="723.97,-718.6 723.97,-786.6 894.11,-786.6 894.11,-718.6 723.97,-718.6"/>
<text xml:space="preserve" text-anchor="start" x="730.97" y="-769.6" font-family="Menlo" font-size="10.00" fill="#16233d">&#45; agents: Map&lt;string,BaseAgent&gt;</text>
<text xml:space="preserve" text-anchor="start" x="730.97" y="-755.6" font-family="Menlo" font-size="10.00" fill="#16233d">&#45; memory: MemoryService</text>
<text xml:space="preserve" text-anchor="start" x="730.97" y="-741.6" font-family="Menlo" font-size="10.00" fill="#16233d">&#45; reporter: ReporterAgent</text>
<text xml:space="preserve" text-anchor="start" x="730.97" y="-727.6" font-family="Menlo" font-size="10.00" fill="#16233d">&#45; recentReports: Report[]</text>
<polygon fill="none" stroke="#5a6b82" points="723.97,-636.6 723.97,-718.6 894.11,-718.6 894.11,-636.6 723.97,-636.6"/>
<text xml:space="preserve" text-anchor="start" x="730.97" y="-701.6" font-family="Menlo" font-size="10.00" fill="#1d3b2f">+ analyze(url,sessionId,userId): Report</text>
<text xml:space="preserve" text-anchor="start" x="730.97" y="-687.6" font-family="Menlo" font-size="10.00" fill="#1d3b2f">+ stats(): OrchestratorStats</text>
<text xml:space="preserve" text-anchor="start" x="730.97" y="-673.6" font-family="Menlo" font-size="10.00" fill="#1d3b2f">+ recent(limit): Report[]</text>
<text xml:space="preserve" text-anchor="start" x="730.97" y="-659.6" font-family="Menlo" font-size="10.00" fill="#1d3b2f">&#45; dispatchStage1/2/3(ctx): Promise[]</text>
<text xml:space="preserve" text-anchor="start" x="730.97" y="-645.6" font-family="Menlo" font-size="10.00" fill="#1d3b2f">&#45; aggregate(ctx): Report</text>
</g>
<!-- Base -->
<g id="node2" class="node">
<title>Base</title>
<polygon fill="#0a6b7b" stroke="none" points="745.63,-502.2 745.63,-536.2 872.45,-536.2 872.45,-502.2 745.63,-502.2"/>
<polygon fill="none" stroke="#5a6b82" points="745.63,-502.2 745.63,-536.2 872.45,-536.2 872.45,-502.2 745.63,-502.2"/>
<text xml:space="preserve" text-anchor="start" x="788.03" y="-523.1" font-family="Helvetica,sans-Serif" font-style="italic" font-size="9.00" fill="#eaf6f8">«abstract»</text>
<text xml:space="preserve" text-anchor="start" x="777.24" y="-510.5" font-family="Helvetica,sans-Serif" font-style="italic" font-size="13.00" fill="white">BaseAgent</text>
<polygon fill="none" stroke="#5a6b82" points="745.63,-462.2 745.63,-502.2 872.45,-502.2 872.45,-462.2 745.63,-462.2"/>
<text xml:space="preserve" text-anchor="start" x="752.63" y="-485.2" font-family="Menlo" font-size="10.00" fill="#16233d">+ name: string</text>
<text xml:space="preserve" text-anchor="start" x="752.63" y="-471.2" font-family="Menlo" font-size="10.00" fill="#16233d">+ role: string</text>
<polygon fill="none" stroke="#5a6b82" points="745.63,-422.2 745.63,-462.2 872.45,-462.2 872.45,-422.2 745.63,-422.2"/>
<text xml:space="preserve" text-anchor="start" x="752.63" y="-445.2" font-family="Menlo" font-size="10.00" fill="#1d3b2f">+ execute(ctx): AgentResult</text>
<text xml:space="preserve" text-anchor="start" x="752.63" y="-431.2" font-family="Menlo" font-size="10.00" fill="#1d3b2f"># _timed(fn): AgentResult</text>
</g>
<!-- Orchestrator&#45;&gt;Base -->
<g id="edge10" class="edge">
<title>Orchestrator&#45;&gt;Base</title>
<path fill="none" stroke="#5a6b82" stroke-width="1.7" d="M809.04,-614.08C809.04,-614.08 809.04,-540.16 809.04,-540.16"/>
<polygon fill="none" stroke="#5a6b82" stroke-width="1.7" points="809.04,-614.34 814.64,-622.74 809.04,-631.14 803.44,-622.74 809.04,-614.34"/>
<text xml:space="preserve" text-anchor="middle" x="832.94" y="-588.2" font-family="Helvetica,sans-Serif" font-size="10.00">dispatches</text>
<text xml:space="preserve" text-anchor="middle" x="832.94" y="-576.2" font-family="Helvetica,sans-Serif" font-size="10.00">1..*</text>
</g>
<!-- Ctx -->
<g id="node3" class="node">
<title>Ctx</title>
<polygon fill="#34507a" stroke="none" points="1206.79,-789 1206.79,-816.6 1335.29,-816.6 1335.29,-789 1206.79,-789"/>
<polygon fill="none" stroke="#5a6b82" points="1206.79,-789 1206.79,-816.6 1335.29,-816.6 1335.29,-789 1206.79,-789"/>
<text xml:space="preserve" text-anchor="start" x="1231.31" y="-799.9" font-family="Helvetica,sans-Serif" font-weight="bold" font-size="13.00" fill="white">ScanContext</text>
<polygon fill="none" stroke="#5a6b82" points="1206.79,-665 1206.79,-789 1335.29,-789 1335.29,-665 1206.79,-665"/>
<text xml:space="preserve" text-anchor="start" x="1213.79" y="-772" font-family="Menlo" font-size="10.00" fill="#16233d">+ url, host: string</text>
<text xml:space="preserve" text-anchor="start" x="1213.79" y="-758" font-family="Menlo" font-size="10.00" fill="#16233d">+ sessionId, userId: string</text>
<text xml:space="preserve" text-anchor="start" x="1213.79" y="-744" font-family="Menlo" font-size="10.00" fill="#16233d">+ startedAt: number</text>
<text xml:space="preserve" text-anchor="start" x="1213.79" y="-730" font-family="Menlo" font-size="10.00" fill="#16233d">+ scrape: ScrapeResult</text>
<text xml:space="preserve" text-anchor="start" x="1213.79" y="-716" font-family="Menlo" font-size="10.00" fill="#16233d">+ agentResults: Map</text>
<text xml:space="preserve" text-anchor="start" x="1213.79" y="-702" font-family="Menlo" font-size="10.00" fill="#16233d">+ iocs: IOC[]</text>
<text xml:space="preserve" text-anchor="start" x="1213.79" y="-688" font-family="Menlo" font-size="10.00" fill="#16233d">+ mitre: MITRETechnique[]</text>
<text xml:space="preserve" text-anchor="start" x="1213.79" y="-674" font-family="Menlo" font-size="10.00" fill="#16233d">+ findings: string[]</text>
<polygon fill="none" stroke="#5a6b82" points="1206.79,-634.2 1206.79,-665 1335.29,-665 1335.29,-634.2 1206.79,-634.2"/>
<text xml:space="preserve" text-anchor="start" x="1269.09" y="-644" font-family="Helvetica,sans-Serif" font-size="14.00"> </text>
</g>
<!-- Orchestrator&#45;&gt;Ctx -->
<g id="edge13" class="edge">
<title>Orchestrator&#45;&gt;Ctx</title>
<path fill="none" stroke="#34507a" stroke-width="1.5" stroke-dasharray="5,2" d="M895.26,-632.93C895.26,-606.64 895.26,-585 895.26,-585 895.26,-585 1234.12,-585 1234.12,-585 1234.12,-585 1234.12,-619.76 1234.12,-619.76"/>
<polygon fill="#34507a" stroke="#34507a" stroke-width="1.5" points="1234.12,-628.76 1230.07,-619.76 1233.87,-626.08 1233.87,-619.76 1234.12,-619.76 1234.37,-619.76 1234.37,-626.08 1238.17,-619.76 1234.12,-628.76"/>
<text xml:space="preserve" text-anchor="middle" x="1050.04" y="-856.6" font-family="Helvetica,sans-Serif" font-size="10.00" fill="#34507a">«creates»</text>
</g>
<!-- Mem -->
<g id="node4" class="node">
<title>Mem</title>
<polygon fill="#34507a" stroke="none" points="989.12,-786.6 989.12,-814.2 1150.96,-814.2 1150.96,-786.6 989.12,-786.6"/>
<polygon fill="none" stroke="#5a6b82" points="989.12,-786.6 989.12,-814.2 1150.96,-814.2 1150.96,-786.6 989.12,-786.6"/>
<text xml:space="preserve" text-anchor="start" x="1021.98" y="-797.5" font-family="Helvetica,sans-Serif" font-weight="bold" font-size="13.00" fill="white">MemoryService</text>
<polygon fill="none" stroke="#5a6b82" points="989.12,-718.6 989.12,-786.6 1150.96,-786.6 1150.96,-718.6 989.12,-718.6"/>
<text xml:space="preserve" text-anchor="start" x="996.12" y="-769.6" font-family="Menlo" font-size="10.00" fill="#16233d">&#45; domainHistory: Map</text>
<text xml:space="preserve" text-anchor="start" x="996.12" y="-755.6" font-family="Menlo" font-size="10.00" fill="#16233d">&#45; sessionMemory: Map</text>
<text xml:space="preserve" text-anchor="start" x="996.12" y="-741.6" font-family="Menlo" font-size="10.00" fill="#16233d">&#45; redis: RedisClient</text>
<text xml:space="preserve" text-anchor="start" x="996.12" y="-727.6" font-family="Menlo" font-size="10.00" fill="#16233d">&#45; vectorDB: VectorClient</text>
<polygon fill="none" stroke="#5a6b82" points="989.12,-636.6 989.12,-718.6 1150.96,-718.6 1150.96,-636.6 989.12,-636.6"/>
<text xml:space="preserve" text-anchor="start" x="996.12" y="-701.6" font-family="Menlo" font-size="10.00" fill="#1d3b2f">+ getDomain(host): DomainMemory</text>
<text xml:space="preserve" text-anchor="start" x="996.12" y="-687.6" font-family="Menlo" font-size="10.00" fill="#1d3b2f">+ recordVisit(host,verdict,score)</text>
<text xml:space="preserve" text-anchor="start" x="996.12" y="-673.6" font-family="Menlo" font-size="10.00" fill="#1d3b2f">+ getSession(sid): SessionMemory</text>
<text xml:space="preserve" text-anchor="start" x="996.12" y="-659.6" font-family="Menlo" font-size="10.00" fill="#1d3b2f">+ appendLLMContext(sid,msg)</text>
<text xml:space="preserve" text-anchor="start" x="996.12" y="-645.6" font-family="Menlo" font-size="10.00" fill="#1d3b2f">+ stats(): MemoryStats</text>
</g>
<!-- Orchestrator&#45;&gt;Mem -->
<g id="edge12" class="edge">
<title>Orchestrator&#45;&gt;Mem</title>
<path fill="none" stroke="#34507a" stroke-width="1.5" stroke-dasharray="5,2" d="M901.79,-725C901.79,-725 970.69,-725 970.69,-725"/>
<polygon fill="#34507a" stroke="#34507a" stroke-width="1.5" points="979.69,-725 970.69,-729.05 977.02,-725.25 970.69,-725.25 970.69,-725 970.69,-724.75 977.02,-724.75 970.69,-720.95 979.69,-725"/>
</g>
<!-- Rep -->
<g id="node15" class="node">
<title>Rep</title>
<polygon fill="#1e8449" stroke="none" points="1471.16,-319.6 1471.16,-347.2 1612.92,-347.2 1612.92,-319.6 1471.16,-319.6"/>
<polygon fill="none" stroke="#5a6b82" points="1471.16,-319.6 1471.16,-347.2 1612.92,-347.2 1612.92,-319.6 1471.16,-319.6"/>
<text xml:space="preserve" text-anchor="start" x="1496.54" y="-330.5" font-family="Helvetica,sans-Serif" font-weight="bold" font-size="13.00" fill="white">ReporterAgent</text>
<polygon fill="none" stroke="#5a6b82" points="1471.16,-279.6 1471.16,-319.6 1612.92,-319.6 1612.92,-279.6 1471.16,-279.6"/>
<text xml:space="preserve" text-anchor="start" x="1478.16" y="-302.6" font-family="Menlo" font-size="10.00" fill="#16233d">&#45; llmChain: LLMFallbackChain</text>
<text xml:space="preserve" text-anchor="start" x="1478.16" y="-288.6" font-family="Menlo" font-size="10.00" fill="#16233d">&#45; appwrite: AppwriteService</text>
<polygon fill="none" stroke="#5a6b82" points="1471.16,-211.6 1471.16,-279.6 1612.92,-279.6 1612.92,-211.6 1471.16,-211.6"/>
<text xml:space="preserve" text-anchor="start" x="1478.16" y="-262.6" font-family="Menlo" font-size="10.00" fill="#1d3b2f">+ execute(ctx): Report</text>
<text xml:space="preserve" text-anchor="start" x="1478.16" y="-248.6" font-family="Menlo" font-size="10.00" fill="#1d3b2f">&#45; blendedScore(ctx)</text>
<text xml:space="preserve" text-anchor="start" x="1478.16" y="-234.6" font-family="Menlo" font-size="10.00" fill="#1d3b2f">&#45; escalate(v,ctx)</text>
<text xml:space="preserve" text-anchor="start" x="1478.16" y="-220.6" font-family="Menlo" font-size="10.00" fill="#1d3b2f">&#45; narrative(ctx)</text>
</g>
<!-- Orchestrator&#45;&gt;Rep -->
<g id="edge11" class="edge">
<title>Orchestrator&#45;&gt;Rep</title>
<path fill="none" stroke="#b9770e" stroke-width="1.7" d="M888.4,-614.24C888.4,-614.24 888.4,-345 888.4,-345 888.4,-345 1289.35,-345 1463.2,-345"/>
<polygon fill="#b9770e" stroke="#b9770e" stroke-width="1.7" points="888.4,-614.5 894,-622.9 888.4,-631.3 882.8,-622.9 888.4,-614.5"/>
<text xml:space="preserve" text-anchor="middle" x="1194.1" y="-476.2" font-family="Helvetica,sans-Serif" font-size="10.00" fill="#b9770e">finalises</text>
</g>
<!-- Base&#45;&gt;Ctx -->
<g id="edge14" class="edge">
<title>Base&#45;&gt;Ctx</title>
<path fill="none" stroke="#5a6b82" stroke-width="1.5" stroke-dasharray="5,2" d="M880.01,-516C996.73,-516 1216.46,-516 1216.46,-516 1216.46,-516 1216.46,-619.68 1216.46,-619.68"/>
<polygon fill="#5a6b82" stroke="#5a6b82" stroke-width="1.5" points="1216.46,-628.68 1212.41,-619.68 1216.21,-626 1216.21,-619.68 1216.46,-619.68 1216.71,-619.68 1216.71,-626 1220.51,-619.68 1216.46,-628.68"/>
<text xml:space="preserve" text-anchor="middle" x="1225.77" y="-582.2" font-family="Helvetica,sans-Serif" font-size="10.00">reads / writes</text>
</g>
<!-- URLc -->
<g id="node7" class="node">
<title>URLc</title>
<polygon fill="#0e8fa3" stroke="none" points="8,-298.6 8,-326.2 142.08,-326.2 142.08,-298.6 8,-298.6"/>
<polygon fill="none" stroke="#5a6b82" points="8,-298.6 8,-326.2 142.08,-326.2 142.08,-298.6 8,-298.6"/>
<text xml:space="preserve" text-anchor="start" x="14" y="-309.5" font-family="Helvetica,sans-Serif" font-weight="bold" font-size="13.00" fill="white">URLClassifierAgent</text>
<polygon fill="none" stroke="#5a6b82" points="8,-272.6 8,-298.6 142.08,-298.6 142.08,-272.6 8,-272.6"/>
<text xml:space="preserve" text-anchor="start" x="15" y="-281.6" font-family="Menlo" font-size="10.00" fill="#16233d">&#45; mlServiceUrl: string</text>
<polygon fill="none" stroke="#5a6b82" points="8,-232.6 8,-272.6 142.08,-272.6 142.08,-232.6 8,-232.6"/>
<text xml:space="preserve" text-anchor="start" x="15" y="-255.6" font-family="Menlo" font-size="10.00" fill="#1d3b2f">+ execute(ctx)</text>
<text xml:space="preserve" text-anchor="start" x="15" y="-241.6" font-family="Menlo" font-size="10.00" fill="#1d3b2f">&#45; callBert(url)</text>
</g>
<!-- Base&#45;&gt;URLc -->
<g id="edge1" class="edge">
<title>Base&#45;&gt;URLc</title>
<path fill="none" stroke="#5a6b82" stroke-width="1.6" d="M722.24,-516C722.24,-516 75.04,-516 75.04,-516 75.04,-516 75.04,-399.68 75.04,-330.16"/>
<polygon fill="none" stroke="#5a6b82" stroke-width="1.6" points="722.24,-520.55 735.24,-516 722.24,-511.45 722.24,-520.55"/>
</g>
<!-- DGAc -->
<g id="node8" class="node">
<title>DGAc</title>
<polygon fill="#0e8fa3" stroke="none" points="197.81,-301 197.81,-328.6 328.27,-328.6 328.27,-301 197.81,-301"/>
<polygon fill="none" stroke="#5a6b82" points="197.81,-301 197.81,-328.6 328.27,-328.6 328.27,-301 197.81,-301"/>
<text xml:space="preserve" text-anchor="start" x="203.81" y="-311.9" font-family="Helvetica,sans-Serif" font-weight="bold" font-size="13.00" fill="white">DGADetectorAgent</text>
<polygon fill="none" stroke="#5a6b82" points="197.81,-270.2 197.81,-301 328.27,-301 328.27,-270.2 197.81,-270.2"/>
<text xml:space="preserve" text-anchor="start" x="261.09" y="-280" font-family="Helvetica,sans-Serif" font-size="14.00"> </text>
<polygon fill="none" stroke="#5a6b82" points="197.81,-230.2 197.81,-270.2 328.27,-270.2 328.27,-230.2 197.81,-230.2"/>
<text xml:space="preserve" text-anchor="start" x="204.81" y="-253.2" font-family="Menlo" font-size="10.00" fill="#1d3b2f">+ execute(ctx)</text>
<text xml:space="preserve" text-anchor="start" x="204.81" y="-239.2" font-family="Menlo" font-size="10.00" fill="#1d3b2f">&#45; callDga(domain)</text>
</g>
<!-- Base&#45;&gt;DGAc -->
<g id="edge2" class="edge">
<title>Base&#45;&gt;DGAc</title>
<path fill="none" stroke="#5a6b82" stroke-width="1.6" d="M722.24,-491C722.24,-491 263.04,-491 263.04,-491 263.04,-491 263.04,-395.2 263.04,-332.52"/>
<polygon fill="none" stroke="#5a6b82" stroke-width="1.6" points="722.24,-495.55 735.24,-491 722.24,-486.45 722.24,-495.55"/>
</g>
<!-- Scr -->
<g id="node9" class="node">
<title>Scr</title>
<polygon fill="#0e8fa3" stroke="none" points="384.69,-298.6 384.69,-326.2 509.38,-326.2 509.38,-298.6 384.69,-298.6"/>
<polygon fill="none" stroke="#5a6b82" points="384.69,-298.6 384.69,-326.2 509.38,-326.2 509.38,-298.6 384.69,-298.6"/>
<text xml:space="preserve" text-anchor="start" x="390.69" y="-309.5" font-family="Helvetica,sans-Serif" font-weight="bold" font-size="13.00" fill="white">WebScraperAgent</text>
<polygon fill="none" stroke="#5a6b82" points="384.69,-272.6 384.69,-298.6 509.38,-298.6 509.38,-272.6 384.69,-272.6"/>
<text xml:space="preserve" text-anchor="start" x="391.69" y="-281.6" font-family="Menlo" font-size="10.00" fill="#16233d">&#45; scraperUrl, apiKey</text>
<polygon fill="none" stroke="#5a6b82" points="384.69,-232.6 384.69,-272.6 509.38,-272.6 509.38,-232.6 384.69,-232.6"/>
<text xml:space="preserve" text-anchor="start" x="391.69" y="-255.6" font-family="Menlo" font-size="10.00" fill="#1d3b2f">+ execute(ctx)</text>
<text xml:space="preserve" text-anchor="start" x="391.69" y="-241.6" font-family="Menlo" font-size="10.00" fill="#1d3b2f">&#45; scrape(url)</text>
</g>
<!-- Base&#45;&gt;Scr -->
<g id="edge3" class="edge">
<title>Base&#45;&gt;Scr</title>
<path fill="none" stroke="#5a6b82" stroke-width="1.6" d="M722.53,-467C722.53,-467 447.04,-467 447.04,-467 447.04,-467 447.04,-385.73 447.04,-330.17"/>
<polygon fill="none" stroke="#5a6b82" stroke-width="1.6" points="722.53,-471.55 735.53,-467 722.53,-462.45 722.53,-471.55"/>
</g>
<!-- MemA -->
<g id="node10" class="node">
<title>MemA</title>
<polygon fill="#0e8fa3" stroke="none" points="565.61,-298.6 565.61,-326.2 688.47,-326.2 688.47,-298.6 565.61,-298.6"/>
<polygon fill="none" stroke="#5a6b82" points="565.61,-298.6 565.61,-326.2 688.47,-326.2 688.47,-298.6 565.61,-298.6"/>
<text xml:space="preserve" text-anchor="start" x="583.7" y="-309.5" font-family="Helvetica,sans-Serif" font-weight="bold" font-size="13.00" fill="white">MemoryAgent</text>
<polygon fill="none" stroke="#5a6b82" points="565.61,-272.6 565.61,-298.6 688.47,-298.6 688.47,-272.6 565.61,-272.6"/>
<text xml:space="preserve" text-anchor="start" x="572.61" y="-281.6" font-family="Menlo" font-size="10.00" fill="#16233d">&#45; memory: MemoryService</text>
<polygon fill="none" stroke="#5a6b82" points="565.61,-232.6 565.61,-272.6 688.47,-272.6 688.47,-232.6 565.61,-232.6"/>
<text xml:space="preserve" text-anchor="start" x="572.61" y="-255.6" font-family="Menlo" font-size="10.00" fill="#1d3b2f">+ execute(ctx)</text>
<text xml:space="preserve" text-anchor="start" x="572.61" y="-241.6" font-family="Menlo" font-size="10.00" fill="#1d3b2f">&#45; readHistory(host)</text>
</g>
<!-- Base&#45;&gt;MemA -->
<g id="edge4" class="edge">
<title>Base&#45;&gt;MemA</title>
<path fill="none" stroke="#5a6b82" stroke-width="1.6" d="M722.44,-443C722.44,-443 603.9,-443 603.9,-443 603.9,-443 603.9,-377.89 603.9,-329.82"/>
<polygon fill="none" stroke="#5a6b82" stroke-width="1.6" points="722.44,-447.55 735.44,-443 722.44,-438.45 722.44,-447.55"/>
</g>
<!-- IOC -->
<g id="node11" class="node">
<title>IOC</title>
<polygon fill="#0e8fa3" stroke="none" points="744.53,-305.6 744.53,-333.2 873.55,-333.2 873.55,-305.6 744.53,-305.6"/>
<polygon fill="none" stroke="#5a6b82" points="744.53,-305.6 744.53,-333.2 873.55,-333.2 873.55,-305.6 744.53,-305.6"/>
<text xml:space="preserve" text-anchor="start" x="750.53" y="-316.5" font-family="Helvetica,sans-Serif" font-weight="bold" font-size="13.00" fill="white">IOCExtractorAgent</text>
<polygon fill="none" stroke="#5a6b82" points="744.53,-279.6 744.53,-305.6 873.55,-305.6 873.55,-279.6 744.53,-279.6"/>
<text xml:space="preserve" text-anchor="start" x="751.53" y="-288.6" font-family="Menlo" font-size="10.00" fill="#16233d">&#45; patterns: Map</text>
<polygon fill="none" stroke="#5a6b82" points="744.53,-225.6 744.53,-279.6 873.55,-279.6 873.55,-225.6 744.53,-225.6"/>
<text xml:space="preserve" text-anchor="start" x="751.53" y="-262.6" font-family="Menlo" font-size="10.00" fill="#1d3b2f">+ execute(ctx)</text>
<text xml:space="preserve" text-anchor="start" x="751.53" y="-248.6" font-family="Menlo" font-size="10.00" fill="#1d3b2f">&#45; extract(text)</text>
<text xml:space="preserve" text-anchor="start" x="751.53" y="-234.6" font-family="Menlo" font-size="10.00" fill="#1d3b2f">&#45; dedupe(iocs)</text>
</g>
<!-- Base&#45;&gt;IOC -->
<g id="edge5" class="edge">
<title>Base&#45;&gt;IOC</title>
<path fill="none" stroke="#5a6b82" stroke-width="1.6" d="M785.24,-403.02C785.24,-403.02 785.24,-337.14 785.24,-337.14"/>
<polygon fill="none" stroke="#5a6b82" stroke-width="1.6" points="780.69,-403.02 785.24,-416.02 789.79,-403.02 780.69,-403.02"/>
</g>
<!-- Beh -->
<g id="node12" class="node">
<title>Beh</title>
<polygon fill="#0e8fa3" stroke="none" points="929.42,-308 929.42,-335.6 1052.66,-335.6 1052.66,-308 929.42,-308"/>
<polygon fill="none" stroke="#5a6b82" points="929.42,-308 929.42,-335.6 1052.66,-335.6 1052.66,-308 929.42,-308"/>
<text xml:space="preserve" text-anchor="start" x="935.42" y="-318.9" font-family="Helvetica,sans-Serif" font-weight="bold" font-size="13.00" fill="white">BehaviouralAgent</text>
<polygon fill="none" stroke="#5a6b82" points="929.42,-277.2 929.42,-308 1052.66,-308 1052.66,-277.2 929.42,-277.2"/>
<text xml:space="preserve" text-anchor="start" x="989.09" y="-287" font-family="Helvetica,sans-Serif" font-size="14.00"> </text>
<polygon fill="none" stroke="#5a6b82" points="929.42,-223.2 929.42,-277.2 1052.66,-277.2 1052.66,-223.2 929.42,-223.2"/>
<text xml:space="preserve" text-anchor="start" x="936.42" y="-260.2" font-family="Menlo" font-size="10.00" fill="#1d3b2f">+ execute(ctx)</text>
<text xml:space="preserve" text-anchor="start" x="936.42" y="-246.2" font-family="Menlo" font-size="10.00" fill="#1d3b2f">&#45; inspectNet(reqs)</text>
<text xml:space="preserve" text-anchor="start" x="936.42" y="-232.2" font-family="Menlo" font-size="10.00" fill="#1d3b2f">&#45; inspectJs(logs)</text>
</g>
<!-- Base&#45;&gt;Beh -->
<g id="edge6" class="edge">
<title>Base&#45;&gt;Beh</title>
<path fill="none" stroke="#5a6b82" stroke-width="1.6" d="M895.58,-443C895.58,-443 951.27,-443 951.27,-443 951.27,-443 951.27,-386.08 951.27,-339.39"/>
<polygon fill="none" stroke="#5a6b82" stroke-width="1.6" points="895.58,-438.45 882.58,-443 895.58,-447.55 895.58,-438.45"/>
</g>
<!-- MIT -->
<g id="node13" class="node">
<title>MIT</title>
<polygon fill="#0e8fa3" stroke="none" points="1108.29,-298.6 1108.29,-326.2 1243.79,-326.2 1243.79,-298.6 1108.29,-298.6"/>
<polygon fill="none" stroke="#5a6b82" points="1108.29,-298.6 1108.29,-326.2 1243.79,-326.2 1243.79,-298.6 1108.29,-298.6"/>
<text xml:space="preserve" text-anchor="start" x="1114.29" y="-309.5" font-family="Helvetica,sans-Serif" font-weight="bold" font-size="13.00" fill="white">MITREMapperAgent</text>
<polygon fill="none" stroke="#5a6b82" points="1108.29,-272.6 1108.29,-298.6 1243.79,-298.6 1243.79,-272.6 1108.29,-272.6"/>
<text xml:space="preserve" text-anchor="start" x="1115.29" y="-281.6" font-family="Menlo" font-size="10.00" fill="#16233d">&#45; signals: Signal[]</text>
<polygon fill="none" stroke="#5a6b82" points="1108.29,-232.6 1108.29,-272.6 1243.79,-272.6 1243.79,-232.6 1108.29,-232.6"/>
<text xml:space="preserve" text-anchor="start" x="1115.29" y="-255.6" font-family="Menlo" font-size="10.00" fill="#1d3b2f">+ execute(ctx)</text>
<text xml:space="preserve" text-anchor="start" x="1115.29" y="-241.6" font-family="Menlo" font-size="10.00" fill="#1d3b2f">&#45; match(text)</text>
</g>
<!-- Base&#45;&gt;MIT -->
<g id="edge7" class="edge">
<title>Base&#45;&gt;MIT</title>
<path fill="none" stroke="#5a6b82" stroke-width="1.6" d="M895.77,-467C895.77,-467 1119.85,-467 1119.85,-467 1119.85,-467 1119.85,-385.73 1119.85,-330.17"/>
<polygon fill="none" stroke="#5a6b82" stroke-width="1.6" points="895.77,-462.45 882.77,-467 895.77,-471.55 895.77,-462.45"/>
</g>
<!-- TI -->
<g id="node14" class="node">
<title>TI</title>
<polygon fill="#0e8fa3" stroke="none" points="1299.4,-298.6 1299.4,-326.2 1414.68,-326.2 1414.68,-298.6 1299.4,-298.6"/>
<polygon fill="none" stroke="#5a6b82" points="1299.4,-298.6 1299.4,-326.2 1414.68,-326.2 1414.68,-298.6 1299.4,-298.6"/>
<text xml:space="preserve" text-anchor="start" x="1305.4" y="-309.5" font-family="Helvetica,sans-Serif" font-weight="bold" font-size="13.00" fill="white">ThreatIntelAgent</text>
<polygon fill="none" stroke="#5a6b82" points="1299.4,-272.6 1299.4,-298.6 1414.68,-298.6 1414.68,-272.6 1299.4,-272.6"/>
<text xml:space="preserve" text-anchor="start" x="1306.4" y="-281.6" font-family="Menlo" font-size="10.00" fill="#16233d">&#45; otxClient: OTXClient</text>
<polygon fill="none" stroke="#5a6b82" points="1299.4,-232.6 1299.4,-272.6 1414.68,-272.6 1414.68,-232.6 1299.4,-232.6"/>
<text xml:space="preserve" text-anchor="start" x="1306.4" y="-255.6" font-family="Menlo" font-size="10.00" fill="#1d3b2f">+ execute(ctx)</text>
<text xml:space="preserve" text-anchor="start" x="1306.4" y="-241.6" font-family="Menlo" font-size="10.00" fill="#1d3b2f">&#45; enrich(ioc)</text>
</g>
<!-- Base&#45;&gt;TI -->
<g id="edge8" class="edge">
<title>Base&#45;&gt;TI</title>
<path fill="none" stroke="#5a6b82" stroke-width="1.6" d="M895.67,-491C895.67,-491 1317.34,-491 1317.34,-491 1317.34,-491 1317.34,-392.68 1317.34,-330.08"/>
<polygon fill="none" stroke="#5a6b82" stroke-width="1.6" points="895.67,-486.45 882.67,-491 895.67,-495.55 895.67,-486.45"/>
</g>
<!-- Base&#45;&gt;Rep -->
<g id="edge9" class="edge">
<title>Base&#45;&gt;Rep</title>
<path fill="none" stroke="#5a6b82" stroke-width="1.6" d="M832.84,-402.85C832.84,-402.85 832.84,-343 832.84,-343 832.84,-343 1278.79,-343 1463.43,-343"/>
<polygon fill="none" stroke="#5a6b82" stroke-width="1.6" points="828.29,-402.85 832.84,-415.85 837.39,-402.85 828.29,-402.85"/>
</g>
<!-- LLM -->
<g id="node5" class="node">
<title>LLM</title>
<polygon fill="#6c3fbf" stroke="none" points="1366.51,-98 1366.51,-125.6 1525.57,-125.6 1525.57,-98 1366.51,-98"/>
<polygon fill="none" stroke="#5a6b82" points="1366.51,-98 1366.51,-125.6 1525.57,-125.6 1525.57,-98 1366.51,-98"/>
<text xml:space="preserve" text-anchor="start" x="1388.61" y="-108.9" font-family="Helvetica,sans-Serif" font-weight="bold" font-size="13.00" fill="white">LLMFallbackChain</text>
<polygon fill="none" stroke="#5a6b82" points="1366.51,-72 1366.51,-98 1525.57,-98 1525.57,-72 1366.51,-72"/>
<text xml:space="preserve" text-anchor="start" x="1373.51" y="-81" font-family="Menlo" font-size="10.00" fill="#16233d">&#45; providers: LLMProvider[]</text>
<polygon fill="none" stroke="#5a6b82" points="1366.51,-4 1366.51,-72 1525.57,-72 1525.57,-4 1366.51,-4"/>
<text xml:space="preserve" text-anchor="start" x="1373.51" y="-55" font-family="Menlo" font-size="10.00" fill="#1d3b2f">+ complete(prompt): LLMResponse</text>
<text xml:space="preserve" text-anchor="start" x="1373.51" y="-41" font-family="Menlo" font-size="10.00" fill="#1d3b2f">&#45; tryGemini(prompt)</text>
<text xml:space="preserve" text-anchor="start" x="1373.51" y="-27" font-family="Menlo" font-size="10.00" fill="#1d3b2f">&#45; tryMistral(prompt)</text>
<text xml:space="preserve" text-anchor="start" x="1373.51" y="-13" font-family="Menlo" font-size="10.00" fill="#1d3b2f">&#45; heuristic(ctx)</text>
</g>
<!-- App -->
<g id="node6" class="node">
<title>App</title>
<polygon fill="#a03a30" stroke="none" points="1581.1,-93.4 1581.1,-121 1694.98,-121 1694.98,-93.4 1581.1,-93.4"/>
<polygon fill="none" stroke="#5a6b82" points="1581.1,-93.4 1581.1,-121 1694.98,-121 1694.98,-93.4 1581.1,-93.4"/>
<text xml:space="preserve" text-anchor="start" x="1587.1" y="-104.3" font-family="Helvetica,sans-Serif" font-weight="bold" font-size="13.00" fill="white">AppwriteService</text>
<polygon fill="none" stroke="#5a6b82" points="1581.1,-62.6 1581.1,-93.4 1694.98,-93.4 1694.98,-62.6 1581.1,-62.6"/>
<text xml:space="preserve" text-anchor="start" x="1636.09" y="-72.4" font-family="Helvetica,sans-Serif" font-size="14.00"> </text>
<polygon fill="none" stroke="#5a6b82" points="1581.1,-8.6 1581.1,-62.6 1694.98,-62.6 1694.98,-8.6 1581.1,-8.6"/>
<text xml:space="preserve" text-anchor="start" x="1588.1" y="-45.6" font-family="Menlo" font-size="10.00" fill="#1d3b2f">+ createAlert(record)</text>
<text xml:space="preserve" text-anchor="start" x="1588.1" y="-31.6" font-family="Menlo" font-size="10.00" fill="#1d3b2f">+ listAlerts(userId,limit)</text>
<text xml:space="preserve" text-anchor="start" x="1588.1" y="-17.6" font-family="Menlo" font-size="10.00" fill="#1d3b2f">+ createAgentTask(task)</text>
</g>
<!-- MemA&#45;&gt;Mem -->
<g id="edge15" class="edge">
<title>MemA&#45;&gt;Mem</title>
<path fill="none" stroke="#34507a" stroke-width="1.5" stroke-dasharray="5,2" d="M650.18,-330.03C650.18,-357.14 650.18,-385 650.18,-385 650.18,-385 1020.89,-385 1020.89,-385 1020.89,-385 1020.89,-622.01 1020.89,-622.01"/>
<polygon fill="#34507a" stroke="#34507a" stroke-width="1.5" points="1020.89,-631.01 1016.84,-622.01 1020.64,-628.33 1020.64,-622.01 1020.89,-622.01 1021.14,-622.01 1021.14,-628.33 1024.94,-622.01 1020.89,-631.01"/>
<text xml:space="preserve" text-anchor="middle" x="1412.55" y="-476.2" font-family="Helvetica,sans-Serif" font-size="10.00" fill="#34507a">reads</text>
</g>
<!-- Rep&#45;&gt;Mem -->
<g id="edge18" class="edge">
<title>Rep&#45;&gt;Mem</title>
<path fill="none" stroke="#1f9d57" stroke-width="1.5" stroke-dasharray="5,2" d="M1463.45,-348C1346.28,-348 1139.4,-348 1139.4,-348 1139.4,-348 1139.4,-622.25 1139.4,-622.25"/>
<polygon fill="#1f9d57" stroke="#1f9d57" stroke-width="1.5" points="1139.4,-631.25 1135.35,-622.25 1139.15,-628.58 1139.15,-622.25 1139.4,-622.25 1139.65,-622.25 1139.65,-628.58 1143.45,-622.25 1139.4,-631.25"/>
<text xml:space="preserve" text-anchor="middle" x="1584.05" y="-476.2" font-family="Helvetica,sans-Serif" font-size="10.00" fill="#1f9d57">writes back</text>
</g>
<!-- Rep&#45;&gt;LLM -->
<g id="edge16" class="edge">
<title>Rep&#45;&gt;LLM</title>
<path fill="none" stroke="#6c3fbf" stroke-width="1.5" stroke-dasharray="5,2" d="M1498.36,-207.64C1498.36,-207.64 1498.36,-140.1 1498.36,-140.1"/>
<polygon fill="#6c3fbf" stroke="#6c3fbf" stroke-width="1.5" points="1498.36,-131.1 1502.41,-140.1 1498.61,-133.77 1498.61,-140.1 1498.36,-140.1 1498.11,-140.1 1498.11,-133.77 1494.31,-140.1 1498.36,-131.1"/>
<text xml:space="preserve" text-anchor="middle" x="1462.16" y="-165.6" font-family="Helvetica,sans-Serif" font-size="10.00" fill="#6c3fbf">«uses»</text>
</g>
<!-- Rep&#45;&gt;App -->
<g id="edge17" class="edge">
<title>Rep&#45;&gt;App</title>
<path fill="none" stroke="#a03a30" stroke-width="1.5" stroke-dasharray="5,2" d="M1597.01,-207.64C1597.01,-207.64 1597.01,-135.51 1597.01,-135.51"/>
<polygon fill="#a03a30" stroke="#a03a30" stroke-width="1.5" points="1597.01,-126.51 1601.06,-135.51 1597.26,-129.18 1597.26,-135.51 1597.01,-135.51 1596.76,-135.51 1596.76,-129.18 1592.96,-135.51 1597.01,-126.51"/>
<text xml:space="preserve" text-anchor="middle" x="1663.05" y="-165.6" font-family="Helvetica,sans-Serif" font-size="10.00" fill="#a03a30">persists via</text>
</g>
</g>
</svg>
