<svg xmlns="http://www.w3.org/2000/svg" viewBox="0 0 1200 1700" width="100%" height="100%" style="background-color: #ffffff;">\n<defs>\n    <marker id="arrow" markerWidth="10" markerHeight="7" refX="9" refY="3.5" orient="auto">\n        <polygon points="0 0, 10 3.5, 0 7" fill="#424242" />\n    </marker>\n</defs>\n\n<rect x="0" y="0" width="100%" height="100%" fill="#ffffff" />\n\n<rect x="490" y="35" width="220" height="50" rx="25" ry="25" fill="#e0f7fa" stroke="#00838f" stroke-width="2" />\n<text x="600" y="60" fill="#111111" font-family="Arial, sans-serif" font-size="14" font-weight="bold" text-anchor="middle" dominant-baseline="middle">User Browses Web</text>\n<rect x="470" y="110" width="260" height="60" rx="8" ry="8" fill="#e3f2fd" stroke="#1e88e5" stroke-width="2" />\n<text x="600" y="131" fill="#111111" font-family="Arial, sans-serif" font-size="14" font-weight="bold" text-anchor="middle" dominant-baseline="middle">Tauri Desktop App</text>\n<text x="600" y="149" fill="#111111" font-family="Arial, sans-serif" font-size="13" font-weight="normal" text-anchor="middle" dominant-baseline="middle">Intercepts URL Activity</text>\n<path d="M 600,85 L 600,110" fill="none" stroke="#424242" stroke-width="2.5" marker-end="url(#arrow)" />\n<rect x="460" y="200" width="280" height="60" rx="8" ry="8" fill="#e3f2fd" stroke="#1e88e5" stroke-width="2" />\n<text x="600" y="221" fill="#111111" font-family="Arial, sans-serif" font-size="14" font-weight="bold" text-anchor="middle" dominant-baseline="middle">Node.js Orchestrator API</text>\n<text x="600" y="239" fill="#111111" font-family="Arial, sans-serif" font-size="13" font-weight="normal" text-anchor="middle" dominant-baseline="middle">Receives Telemetry</text>\n<path d="M 600,170 L 600,200" fill="none" stroke="#424242" stroke-width="2.5" marker-end="url(#arrow)" />\n<polygon points="600,290 690,330 600,370 510,330" fill="#fff8e1" stroke="#f57f17" stroke-width="2" />\n<text x="600" y="330" fill="#111111" font-family="Arial, sans-serif" font-size="14" font-weight="bold" text-anchor="middle" dominant-baseline="middle">URL in Cache?</text>\n<path d="M 600,260 L 600,290" fill="none" stroke="#424242" stroke-width="2.5" marker-end="url(#arrow)" />\n<rect x="160" y="300" width="180" height="60" rx="8" ry="8" fill="#e8f5e9" stroke="#43a047" stroke-width="2" />\n<text x="250" y="321" fill="#111111" font-family="Arial, sans-serif" font-size="14" font-weight="bold" text-anchor="middle" dominant-baseline="middle">Return Cached</text>\n<text x="250" y="339" fill="#111111" font-family="Arial, sans-serif" font-size="13" font-weight="normal" text-anchor="middle" dominant-baseline="middle">Verdict immediately</text>\n<path d="M 510,330 L 340,330" fill="none" stroke="#424242" stroke-width="2.5" marker-end="url(#arrow)" />\n<rect x="413" y="310" width="24" height="20" fill="#ffffff" rx="4" />\n<text x="425" y="321" fill="#b71c1c" font-family="Arial, sans-serif" font-size="12" font-weight="bold" text-anchor="middle" dominant-baseline="middle">Yes</text>\n<polygon points="600,410 720,450 600,490 480,450" fill="#fff8e1" stroke="#f57f17" stroke-width="2" />\n<text x="600" y="441" fill="#111111" font-family="Arial, sans-serif" font-size="14" font-weight="bold" text-anchor="middle" dominant-baseline="middle">Is on Global Allowlist?</text>\n<text x="600" y="459" fill="#111111" font-family="Arial, sans-serif" font-size="14" font-weight="bold" text-anchor="middle" dominant-baseline="middle">(e.g. Google, GitHub)</text>\n<path d="M 600,370 L 600,410" fill="none" stroke="#424242" stroke-width="2.5" marker-end="url(#arrow)" />\n<rect x="592" y="380" width="16" height="20" fill="#ffffff" rx="4" />\n<text x="600" y="391" fill="#b71c1c" font-family="Arial, sans-serif" font-size="12" font-weight="bold" text-anchor="middle" dominant-baseline="middle">No</text>\n<rect x="140" y="420" width="220" height="60" rx="8" ry="8" fill="#e3f2fd" stroke="#1e88e5" stroke-width="2" />\n<text x="250" y="441" fill="#111111" font-family="Arial, sans-serif" font-size="14" font-weight="bold" text-anchor="middle" dominant-baseline="middle">Mark URL Safe</text>\n<text x="250" y="459" fill="#111111" font-family="Arial, sans-serif" font-size="13" font-weight="normal" text-anchor="middle" dominant-baseline="middle">Avoids False Positive Noise</text>\n<path d="M 480,450 L 360,450" fill="none" stroke="#424242" stroke-width="2.5" marker-end="url(#arrow)" />\n<rect x="408" y="430" width="24" height="20" fill="#ffffff" rx="4" />\n<text x="420" y="441" fill="#b71c1c" font-family="Arial, sans-serif" font-size="12" font-weight="bold" text-anchor="middle" dominant-baseline="middle">Yes</text>\n<rect x="450" y="535" width="300" height="50" rx="8" ry="8" fill="#e3f2fd" stroke="#1e88e5" stroke-width="2" />\n<text x="600" y="560" fill="#111111" font-family="Arial, sans-serif" font-size="14" font-weight="bold" text-anchor="middle" dominant-baseline="middle">DAG Pipeline Execution Triggered</text>\n<path d="M 600,490 L 600,535" fill="none" stroke="#424242" stroke-width="2.5" marker-end="url(#arrow)" />\n<rect x="592" y="505" width="16" height="20" fill="#ffffff" rx="4" />\n<text x="600" y="516" fill="#b71c1c" font-family="Arial, sans-serif" font-size="12" font-weight="bold" text-anchor="middle" dominant-baseline="middle">No</text>\n<rect x="200" y="620" width="200" height="60" rx="8" ry="8" fill="#f3e5f5" stroke="#8e24aa" stroke-width="2" />\n<text x="300" y="641" fill="#111111" font-family="Arial, sans-serif" font-size="14" font-weight="bold" text-anchor="middle" dominant-baseline="middle">URL Phishing BERT</text>\n<text x="300" y="659" fill="#111111" font-family="Arial, sans-serif" font-size="13" font-weight="normal" text-anchor="middle" dominant-baseline="middle">FastAPI Hugging Face Space</text>\n<rect x="500" y="620" width="200" height="60" rx="8" ry="8" fill="#e3f2fd" stroke="#1e88e5" stroke-width="2" />\n<text x="600" y="641" fill="#111111" font-family="Arial, sans-serif" font-size="14" font-weight="bold" text-anchor="middle" dominant-baseline="middle">DGA Detector</text>\n<text x="600" y="659" fill="#111111" font-family="Arial, sans-serif" font-size="13" font-weight="normal" text-anchor="middle" dominant-baseline="middle">Entropy Heuristics</text>\n<rect x="800" y="620" width="200" height="60" rx="8" ry="8" fill="#e8f5e9" stroke="#43a047" stroke-width="2" />\n<text x="900" y="641" fill="#111111" font-family="Arial, sans-serif" font-size="14" font-weight="bold" text-anchor="middle" dominant-baseline="middle">Web Scraper</text>\n<text x="900" y="659" fill="#111111" font-family="Arial, sans-serif" font-size="13" font-weight="normal" text-anchor="middle" dominant-baseline="middle">Headless Scrapper.live</text>\n<path d="M 600,585 L 600,620" fill="none" stroke="#424242" stroke-width="2.5" marker-end="url(#arrow)" />\n<path d="M 580,585 L 300,620" fill="none" stroke="#424242" stroke-width="2.5" marker-end="url(#arrow)" />\n<path d="M 620,585 L 900,620" fill="none" stroke="#424242" stroke-width="2.5" marker-end="url(#arrow)" />\n<rect x="440" y="750" width="320" height="60" rx="8" ry="8" fill="#e3f2fd" stroke="#1e88e5" stroke-width="2" />\n<text x="600" y="771" fill="#111111" font-family="Arial, sans-serif" font-size="14" font-weight="bold" text-anchor="middle" dominant-baseline="middle">Wait for DOM Scrape Result</text>\n<text x="600" y="789" fill="#111111" font-family="Arial, sans-serif" font-size="13" font-weight="normal" text-anchor="middle" dominant-baseline="middle">Send to Deep Content Analyzers</text>\n<path d="M 300,680 L 550,750" fill="none" stroke="#424242" stroke-width="2.5" marker-end="url(#arrow)" />\n<path d="M 600,680 L 600,750" fill="none" stroke="#424242" stroke-width="2.5" marker-end="url(#arrow)" />\n<path d="M 900,680 L 650,750" fill="none" stroke="#424242" stroke-width="2.5" marker-end="url(#arrow)" />\n<rect x="200" y="850" width="200" height="60" rx="8" ry="8" fill="#e3f2fd" stroke="#1e88e5" stroke-width="2" />\n<text x="300" y="871" fill="#111111" font-family="Arial, sans-serif" font-size="14" font-weight="bold" text-anchor="middle" dominant-baseline="middle">IOC Extractor</text>\n<text x="300" y="889" fill="#111111" font-family="Arial, sans-serif" font-size="13" font-weight="normal" text-anchor="middle" dominant-baseline="middle">(IPs, Hashes, Links)</text>\n<rect x="500" y="850" width="200" height="60" rx="8" ry="8" fill="#e3f2fd" stroke="#1e88e5" stroke-width="2" />\n<text x="600" y="871" fill="#111111" font-family="Arial, sans-serif" font-size="14" font-weight="bold" text-anchor="middle" dominant-baseline="middle">Behavioral Analyzer</text>\n<text x="600" y="889" fill="#111111" font-family="Arial, sans-serif" font-size="13" font-weight="normal" text-anchor="middle" dominant-baseline="middle">Examine JS / Network</text>\n<rect x="800" y="850" width="200" height="60" rx="8" ry="8" fill="#e3f2fd" stroke="#1e88e5" stroke-width="2" />\n<text x="900" y="871" fill="#111111" font-family="Arial, sans-serif" font-size="14" font-weight="bold" text-anchor="middle" dominant-baseline="middle">MITRE TTP Mapper</text>\n<text x="900" y="889" fill="#111111" font-family="Arial, sans-serif" font-size="13" font-weight="normal" text-anchor="middle" dominant-baseline="middle">Align to Cyber Kill Chain</text>\n<path d="M 600,810 L 600,850" fill="none" stroke="#424242" stroke-width="2.5" marker-end="url(#arrow)" />\n<path d="M 580,810 L 300,850" fill="none" stroke="#424242" stroke-width="2.5" marker-end="url(#arrow)" />\n<path d="M 620,810 L 900,850" fill="none" stroke="#424242" stroke-width="2.5" marker-end="url(#arrow)" />\n<rect x="460" y="970" width="280" height="60" rx="8" ry="8" fill="#e8f5e9" stroke="#43a047" stroke-width="2" />\n<text x="600" y="991" fill="#111111" font-family="Arial, sans-serif" font-size="14" font-weight="bold" text-anchor="middle" dominant-baseline="middle">AlienVault OTX Enrichment</text>\n<text x="600" y="1009" fill="#111111" font-family="Arial, sans-serif" font-size="13" font-weight="normal" text-anchor="middle" dominant-baseline="middle">Correlate Extracted IOCs</text>\n<path d="M 300,910 L 550,970" fill="none" stroke="#424242" stroke-width="2.5" marker-end="url(#arrow)" />\n<path d="M 600,910 L 600,970" fill="none" stroke="#424242" stroke-width="2.5" marker-end="url(#arrow)" />\n<path d="M 900,910 L 650,970" fill="none" stroke="#424242" stroke-width="2.5" marker-end="url(#arrow)" />\n<rect x="460" y="1090" width="280" height="60" rx="8" ry="8" fill="#e3f2fd" stroke="#1e88e5" stroke-width="2" />\n<text x="600" y="1111" fill="#111111" font-family="Arial, sans-serif" font-size="14" font-weight="bold" text-anchor="middle" dominant-baseline="middle">Aggregate Scores &amp; Findings</text>\n<text x="600" y="1129" fill="#111111" font-family="Arial, sans-serif" font-size="13" font-weight="normal" text-anchor="middle" dominant-baseline="middle">(Weighting Algorithm)</text>\n<path d="M 600,1030 L 600,1090" fill="none" stroke="#424242" stroke-width="2.5" marker-end="url(#arrow)" />\n<polygon points="600,1200 710,1240 600,1280 490,1240" fill="#fff8e1" stroke="#f57f17" stroke-width="2" />\n<text x="600" y="1231" fill="#111111" font-family="Arial, sans-serif" font-size="14" font-weight="bold" text-anchor="middle" dominant-baseline="middle">Verdict Threshold:</text>\n<text x="600" y="1249" fill="#111111" font-family="Arial, sans-serif" font-size="14" font-weight="bold" text-anchor="middle" dominant-baseline="middle">Risk Score &gt;= 0.35?</text>\n<path d="M 600,1150 L 600,1200" fill="none" stroke="#424242" stroke-width="2.5" marker-end="url(#arrow)" />\n<rect x="180" y="1325" width="240" height="70" rx="8" ry="8" fill="#ffebee" stroke="#e53935" stroke-width="3" />\n<text x="300" y="1351" fill="#111111" font-family="Arial, sans-serif" font-size="14" font-weight="bold" text-anchor="middle" dominant-baseline="middle">Trigger UI Alert!</text>\n<text x="300" y="1369" fill="#111111" font-family="Arial, sans-serif" font-size="13" font-weight="normal" text-anchor="middle" dominant-baseline="middle">Notify user instantly/protects</text>\n<path d="M 490,1240 L 300,1240 L 300,1325" fill="none" stroke="#424242" stroke-width="2.5" marker-end="url(#arrow)" />\n<rect x="323" y="1220" width="144" height="20" fill="#ffffff" rx="4" />\n<text x="395" y="1231" fill="#b71c1c" font-family="Arial, sans-serif" font-size="12" font-weight="bold" text-anchor="middle" dominant-baseline="middle">Yes (Threat Found)</text>\n<rect x="160" y="1445" width="280" height="70" rx="8" ry="8" fill="#f3e5f5" stroke="#8e24aa" stroke-width="2" />\n<text x="300" y="1471" fill="#111111" font-family="Arial, sans-serif" font-size="14" font-weight="bold" text-anchor="middle" dominant-baseline="middle">LLM Chain</text>\n<text x="300" y="1489" fill="#111111" font-family="Arial, sans-serif" font-size="13" font-weight="normal" text-anchor="middle" dominant-baseline="middle">Generate Explainable Narrative</text>\n<path d="M 300,1395 L 300,1445" fill="none" stroke="#424242" stroke-width="2.5" marker-end="url(#arrow)" />\n<rect x="780" y="1330" width="240" height="60" rx="8" ry="8" fill="#e8f5e9" stroke="#43a047" stroke-width="2" />\n<text x="900" y="1351" fill="#111111" font-family="Arial, sans-serif" font-size="14" font-weight="bold" text-anchor="middle" dominant-baseline="middle">Mark URL Safe</text>\n<text x="900" y="1369" fill="#111111" font-family="Arial, sans-serif" font-size="13" font-weight="normal" text-anchor="middle" dominant-baseline="middle">Seamless browsing experience</text>\n<path d="M 710,1240 L 900,1240 L 900,1330" fill="none" stroke="#424242" stroke-width="2.5" marker-end="url(#arrow)" />\n<rect x="737" y="1220" width="136" height="20" fill="#ffffff" rx="4" />\n<text x="805" y="1231" fill="#b71c1c" font-family="Arial, sans-serif" font-size="12" font-weight="bold" text-anchor="middle" dominant-baseline="middle">No (Clean / Safe)</text>\n<rect x="460" y="1590" width="280" height="60" rx="8" ry="8" fill="#e8f5e9" stroke="#43a047" stroke-width="2" />\n<text x="600" y="1611" fill="#111111" font-family="Arial, sans-serif" font-size="14" font-weight="bold" text-anchor="middle" dominant-baseline="middle">Save Alert Data to Appwrite</text>\n<text x="600" y="1629" fill="#111111" font-family="Arial, sans-serif" font-size="13" font-weight="normal" text-anchor="middle" dominant-baseline="middle">Update Redis Cache</text>\n<path d="M 300,1515 L 300,1620 L 460,1620" fill="none" stroke="#424242" stroke-width="2.5" marker-end="url(#arrow)" />\n<path d="M 900,1390 L 900,1620 L 740,1620" fill="none" stroke="#424242" stroke-width="2.5" marker-end="url(#arrow)" />\n<path d="M 160,330 L 50,330 L 50,1640 L 460,1640" fill="none" stroke="#424242" stroke-width="2.5" />\n<path d="M 140,450 L 50,450" fill="none" stroke="#424242" stroke-width="2.5" />\n</svg>